<?xml version="1.0" encoding="UTF-8"?>
<!DOCTYPE svg PUBLIC "-//W3C//DTD SVG 1.1//EN" "http://www.w3.org/Graphics/SVG/1.1/DTD/svg11.dtd">
<svg xmlns="http://www.w3.org/2000/svg" version="1.1" width="1024px" height="1024px" style="shape-rendering:geometricPrecision; text-rendering:geometricPrecision; image-rendering:optimizeQuality; fill-rule:evenodd; clip-rule:evenodd" xmlns:xlink="http://www.w3.org/1999/xlink">
<g><path style="opacity:0.004" fill="#0000f7" d="M 107.5,52.5 C 106.833,51.1667 106.833,51.1667 107.5,52.5 Z"/></g>
<g><path style="opacity:0.004" fill="#0000ff" d="M 122.5,51.5 C 123.833,52.1667 123.833,52.1667 122.5,51.5 Z"/></g>
<g><path style="opacity:0.02" fill="#181e30" d="M 104.5,52.5 C 104.5,53.5 104.5,54.5 104.5,55.5C 98.2902,56.4264 92.2902,58.2597 86.5,61C 81.9349,65.0755 77.2683,68.9088 72.5,72.5C 74.25,69.244 76.5834,66.4106 79.5,64C 87.0515,58.5352 95.3848,54.7018 104.5,52.5 Z"/></g>
<g><path style="opacity:1" fill="#71acfc" d="M 104.5,52.5 C 105.167,52.5 105.5,52.8333 105.5,53.5C 121.45,52.4562 136.117,56.2896 149.5,65C 155.003,69.6706 160.336,74.504 165.5,79.5C 165.539,80.5832 165.873,81.5832 166.5,82.5C 216.162,83.4999 265.829,83.8333 315.5,83.5C 320.301,83.3498 324.967,84.0165 329.5,85.5C 330.167,85.5 330.5,85.1667 330.5,84.5C 331.167,84.5 331.5,84.8333 331.5,85.5C 331.369,86.3764 331.702,87.0431 332.5,87.5C 341.258,90.9314 348.591,96.2647 354.5,103.5C 359.495,111.478 365.162,118.811 371.5,125.5C 372.167,125.5 372.5,125.833 372.5,126.5C 372.062,126.435 371.728,126.601 371.5,127C 377.26,135.726 383.593,143.893 390.5,151.5C 394.598,159.618 399.932,166.952 406.5,173.5C 408.963,175.732 410.963,178.398 412.5,181.5C 412.892,183.179 413.392,184.846 414,186.5C 419.668,193.665 425.501,200.665 431.5,207.5C 433.055,210.94 434.888,214.273 437,217.5C 446.171,229.191 454.837,241.191 463,253.5C 464.113,254.305 465.279,254.972 466.5,255.5C 466.343,256.873 466.51,258.207 467,259.5C 475.411,269.733 483.578,280.066 491.5,290.5C 498.533,300.366 505.366,310.366 512,320.5C 520.079,330.4 527.912,340.4 535.5,350.5C 536.64,352.78 537.807,355.114 539,357.5C 543.061,362.387 547.227,367.053 551.5,371.5C 552.167,371.5 552.5,371.833 552.5,372.5C 552.062,372.435 551.728,372.601 551.5,373C 555.544,378.921 559.711,384.755 564,390.5C 565.129,392.141 566.629,393.141 568.5,393.5C 569.6,394.605 570.267,395.938 570.5,397.5C 572.031,400.899 573.865,404.233 576,407.5C 582.356,416.013 588.856,424.346 595.5,432.5C 595.709,433.922 596.209,435.255 597,436.5C 599.285,439.432 601.785,442.098 604.5,444.5C 608.149,451.119 612.315,457.452 617,463.5C 629.391,481.004 642.224,498.004 655.5,514.5C 659.262,517.929 662.262,521.929 664.5,526.5C 666.14,530.441 668.306,534.108 671,537.5C 672.129,539.141 673.629,540.141 675.5,540.5C 677.027,540.427 678.027,541.094 678.5,542.5C 687.835,547.185 694.168,544.518 697.5,534.5C 698.832,411.001 698.832,287.667 697.5,164.5C 696.348,163.375 695.348,163.375 694.5,164.5C 691.32,162.745 688.32,160.745 685.5,158.5C 681.5,153.833 677.167,149.5 672.5,145.5C 663.264,128.513 660.931,110.513 665.5,91.5C 665.707,88.7594 666.707,86.4261 668.5,84.5C 673.509,78.4655 678.509,72.4655 683.5,66.5C 687.118,62.0153 691.784,59.0153 697.5,57.5C 705.149,56.2814 712.816,55.2814 720.5,54.5C 742.209,55.2001 759.209,64.5334 771.5,82.5C 772.107,82.3764 772.44,82.0431 772.5,81.5C 772.833,81.5 773.167,81.5 773.5,81.5C 800.813,83.4915 828.48,84.1582 856.5,83.5C 857.44,80.2857 858.94,77.2857 861,74.5C 865.762,69.5678 870.595,64.9012 875.5,60.5C 890.632,54.4819 906.298,52.9819 922.5,56C 939.139,62.5246 951.305,73.6913 959,89.5C 961.152,94.7977 962.985,100.131 964.5,105.5C 965.833,106.167 965.833,106.833 964.5,107.5C 964.809,133.857 953.143,152.857 929.5,164.5C 928.833,164.5 928.5,164.833 928.5,165.5C 927.85,165.804 927.183,166.137 926.5,166.5C 925.333,397.166 925.167,627.833 926,858.5C 926.671,857.748 927.504,857.414 928.5,857.5C 928.328,858.492 928.662,859.158 929.5,859.5C 932.877,861.243 936.21,862.909 939.5,864.5C 942.566,865.729 945.233,867.563 947.5,870C 948.252,870.671 948.586,871.504 948.5,872.5C 952.827,878.478 956.66,884.811 960,891.5C 967.17,912.535 964.17,931.869 951,949.5C 935.288,966.79 915.788,973.624 892.5,970C 891.833,969.333 891.167,968.667 890.5,968C 885.965,967.284 881.632,966.118 877.5,964.5C 869.671,960.843 863.171,955.509 858,948.5C 857.517,947.552 857.351,946.552 857.5,945.5C 856.639,943.614 855.639,941.78 854.5,940C 803.834,939.5 753.168,939.333 702.5,939.5C 690.945,935.627 680.779,929.294 672,920.5C 665.167,910.838 658.834,900.838 653,890.5C 650.288,886.388 647.122,882.722 643.5,879.5C 635.281,866.756 626.781,854.089 618,841.5C 612.969,834.978 607.803,828.644 602.5,822.5C 601.955,820.407 601.122,818.407 600,816.5C 583.916,794.757 568.249,772.757 553,750.5C 541.156,735.45 529.823,720.117 519,704.5C 517.629,702.959 516.129,701.625 514.5,700.5C 507.601,689.718 500.435,679.052 493,668.5C 483.281,656.115 473.947,643.448 465,630.5C 463.629,628.959 462.129,627.625 460.5,626.5C 460.291,625.078 459.791,623.745 459,622.5C 456.715,619.568 454.215,616.902 451.5,614.5C 447.354,608.224 443.187,601.89 439,595.5C 425.377,577.212 411.544,559.212 397.5,541.5C 394.051,534.269 389.384,527.935 383.5,522.5C 382.91,521.234 382.41,519.901 382,518.5C 374.025,507.691 365.858,497.024 357.5,486.5C 356.264,485.754 354.93,485.421 353.5,485.5C 339.901,479.974 331.234,483.974 327.5,497.5C 326.167,598.833 326.167,700.167 327.5,801.5C 327.888,802.691 327.888,804.024 327.5,805.5C 326.501,822.756 326.168,840.756 326.5,859.5C 329.33,859.694 331.996,860.361 334.5,861.5C 345.318,866.983 352.985,875.316 357.5,886.5C 356.981,890.756 358.147,894.423 361,897.5C 363,907.5 363,917.5 361,927.5C 358.405,932.209 356.572,937.209 355.5,942.5C 352.032,946.141 348.698,949.974 345.5,954C 328.879,968.824 309.545,973.991 287.5,969.5C 284.353,969.263 281.353,968.43 278.5,967C 277.058,966.623 276.058,965.79 275.5,964.5C 267.905,960.073 261.739,954.073 257,946.5C 255.549,944.536 253.716,943.203 251.5,942.5C 251.5,942.167 251.5,941.833 251.5,941.5C 252.043,941.44 252.376,941.107 252.5,940.5C 224.508,939.5 196.508,939.167 168.5,939.5C 167.56,942.714 166.06,945.714 164,948.5C 160.296,952.036 156.796,955.702 153.5,959.5C 146.708,963.231 139.708,966.398 132.5,969C 120.097,969.882 107.764,969.382 95.5,967.5C 62.5228,949.238 51.5228,922.238 62.5,886.5C 67.8084,875.526 75.8084,867.193 86.5,861.5C 88.4835,861.617 90.1502,860.95 91.5,859.5C 92.5,627.168 92.8333,394.834 92.5,162.5C 90.1591,162.008 88.1591,160.841 86.5,159C 85.2068,158.51 83.8734,158.343 82.5,158.5C 73.5725,150.66 66.5725,141.326 61.5,130.5C 61.0431,129.702 60.3764,129.369 59.5,129.5C 59.5,129.167 59.5,128.833 59.5,128.5C 59.5237,120.363 59.6904,112.029 60,103.5C 60.5,100.5 61,97.5 61.5,94.5C 63.2398,89.7962 64.9065,85.1295 66.5,80.5C 69.4707,78.5574 71.4707,75.8908 72.5,72.5C 77.2683,68.9088 81.9349,65.0755 86.5,61C 92.2902,58.2597 98.2902,56.4264 104.5,55.5C 104.5,54.5 104.5,53.5 104.5,52.5 Z M 307.5,129.5 C 309.89,131.02 312.557,132.02 315.5,132.5C 319.346,138.862 323.679,144.862 328.5,150.5C 332.776,158.212 337.442,165.712 342.5,173C 341.12,176.255 339.12,179.088 336.5,181.5C 324.005,176.116 311.005,171.45 297.5,167.5C 297.5,167.167 297.5,166.833 297.5,166.5C 279.57,160.255 262.07,153.588 245,146.5C 244.617,147.056 244.117,147.389 243.5,147.5C 242.817,145.824 241.483,145.157 239.5,145.5C 235.763,143.413 231.93,141.413 228,139.5C 227.667,139.833 227.333,140.167 227,140.5C 219.734,137.078 212.234,134.244 204.5,132C 204.833,131.667 205.167,131.333 205.5,131C 204.5,130.667 203.5,130.333 202.5,130C 237.498,129.5 272.498,129.333 307.5,129.5 Z M 855.5,141.5 C 857.738,146.071 860.738,150.071 864.5,153.5C 866.17,156.002 868.336,158.002 871,159.5C 870.982,164.73 869.816,169.73 867.5,174.5C 863.305,185.084 859.305,195.751 855.5,206.5C 851.653,214.878 848.32,223.545 845.5,232.5C 843.104,238.022 841.104,243.689 839.5,249.5C 833.664,260.106 829.331,271.439 826.5,283.5C 825.326,284.514 824.66,285.847 824.5,287.5C 818.407,301.307 812.74,314.974 807.5,328.5C 805.708,331.546 804.708,334.879 804.5,338.5C 802.937,340.617 801.604,342.95 800.5,345.5C 797.579,346.407 794.579,346.74 791.5,346.5C 789.365,334.34 787.032,322.34 784.5,310.5C 784.539,309.417 784.873,308.417 785.5,307.5C 783.943,302.101 782.61,296.767 781.5,291.5C 781.464,286.07 780.797,280.737 779.5,275.5C 779.672,274.508 779.338,273.842 778.5,273.5C 778.253,268.433 777.587,263.433 776.5,258.5C 776.167,257.833 775.833,257.167 775.5,256.5C 774.833,251.167 774.167,245.833 773.5,240.5C 773.672,239.508 773.338,238.842 772.5,238.5C 768.25,211.429 762.917,184.929 756.5,159C 762.118,155.221 766.451,150.387 769.5,144.5C 772.54,141.086 774.54,137.086 775.5,132.5C 776.167,132.5 776.5,132.167 776.5,131.5C 800.811,129.51 825.477,128.843 850.5,129.5C 851.097,134.017 852.763,138.017 855.5,141.5 Z M 175.5,144.5 C 175.833,144.5 176.167,144.5 176.5,144.5C 193.138,150.936 209.805,157.436 226.5,164C 229.777,165.143 233.11,165.977 236.5,166.5C 240.231,169.524 244.564,171.191 249.5,171.5C 257.451,175.599 265.784,178.932 274.5,181.5C 290.87,188.341 307.536,194.674 324.5,200.5C 324.783,201.289 325.283,201.956 326,202.5C 327,201.167 328,201.167 329,202.5C 328.974,208.736 329.807,214.736 331.5,220.5C 333.563,232.898 340.229,241.898 351.5,247.5C 351.842,248.338 352.508,248.672 353.5,248.5C 354.315,249.837 355.482,250.837 357,251.5C 357.167,253.5 357.333,255.5 357.5,257.5C 355.945,270.207 354.445,283.207 353,296.5C 346.9,297.786 340.733,298.953 334.5,300C 331.367,300.86 328.7,302.36 326.5,304.5C 323.999,305.826 321.332,306.326 318.5,306C 316.688,303.14 314.354,300.973 311.5,299.5C 305.891,292.222 299.558,285.556 292.5,279.5C 289.877,275.209 286.544,271.543 282.5,268.5C 277.126,261.462 271.126,255.129 264.5,249.5C 262.577,246.397 260.41,243.397 258,240.5C 251.136,233.35 244.302,226.35 237.5,219.5C 234.564,214.895 230.898,210.895 226.5,207.5C 219.529,199.194 212.196,191.194 204.5,183.5C 200.155,177.491 195.155,172.157 189.5,167.5C 189.5,165.5 188.5,164.5 186.5,164.5C 182.539,158.871 177.873,153.871 172.5,149.5C 172.5,148.167 171.833,147.5 170.5,147.5C 170.297,145.956 169.63,144.622 168.5,143.5C 168.833,143.167 169.167,142.833 169.5,142.5C 171.323,143.747 173.323,144.414 175.5,144.5 Z M 163.5,169.5 C 163.328,170.492 163.662,171.158 164.5,171.5C 170.131,178.798 176.464,185.465 183.5,191.5C 186.429,195.606 189.596,199.606 193,203.5C 194.651,205.21 196.484,206.544 198.5,207.5C 198.539,208.583 198.873,209.583 199.5,210.5C 216.766,229.273 233.933,248.273 251,267.5C 252.129,269.141 253.629,270.141 255.5,270.5C 260.032,277.707 265.699,284.04 272.5,289.5C 278.876,297.204 285.543,304.538 292.5,311.5C 295.991,315.833 299.325,320.333 302.5,325C 286.986,354.608 291.319,380.941 315.5,404C 318.767,406.135 322.101,407.969 325.5,409.5C 327.481,411.144 329.481,412.81 331.5,414.5C 329.71,419.648 328.376,424.981 327.5,430.5C 318.282,432.45 309.949,436.117 302.5,441.5C 294.809,445.442 288.643,451.109 284,458.5C 278.545,469.364 274.379,480.697 271.5,492.5C 266.574,504.152 262.24,516.152 258.5,528.5C 257.833,528.5 257.5,528.833 257.5,529.5C 254.536,537.756 251.869,546.089 249.5,554.5C 249.5,554.833 249.5,555.167 249.5,555.5C 244.086,566.344 239.752,577.678 236.5,589.5C 234.167,589.5 231.833,589.5 229.5,589.5C 229.598,587.447 228.931,585.78 227.5,584.5C 227.599,581.763 227.265,579.096 226.5,576.5C 225.993,572.14 225.327,567.807 224.5,563.5C 223.374,556.789 222.041,550.123 220.5,543.5C 219.993,539.14 219.327,534.807 218.5,530.5C 218.443,529.391 218.11,528.391 217.5,527.5C 214.629,511.146 211.629,494.813 208.5,478.5C 206.166,465.831 203.833,453.164 201.5,440.5C 200.338,434.188 199.338,427.855 198.5,421.5C 198.5,420.833 198.5,420.167 198.5,419.5C 196.929,414.801 195.596,410.134 194.5,405.5C 193.471,396.911 191.804,388.578 189.5,380.5C 187.295,362.814 183.962,345.481 179.5,328.5C 179.5,327.5 179.5,326.5 179.5,325.5C 177.258,310.224 174.258,295.224 170.5,280.5C 169.703,270.721 168.369,261.055 166.5,251.5C 161.951,228.87 157.617,206.203 153.5,183.5C 152.573,174.434 151.739,165.434 151,156.5C 154.691,161.356 158.858,165.69 163.5,169.5 Z M 877.5,510.5 C 876.816,594.38 876.649,678.047 877,761.5C 876.115,758.048 875.282,754.714 874.5,751.5C 873.897,745.002 872.564,738.669 870.5,732.5C 870.434,729.7 870.434,726.867 870.5,724C 867.543,708.347 864.209,692.847 860.5,677.5C 860.5,676.833 860.5,676.167 860.5,675.5C 856.907,650.933 852.573,626.599 847.5,602.5C 847.5,602.167 847.5,601.833 847.5,601.5C 846.989,595.951 845.989,590.617 844.5,585.5C 840.73,562.607 836.73,539.774 832.5,517C 832.645,516.228 832.978,515.561 833.5,515C 829.725,498.757 826.058,482.59 822.5,466.5C 822.5,465.833 822.5,465.167 822.5,464.5C 822.237,459.876 821.237,455.542 819.5,451.5C 819.5,450.5 819.5,449.5 819.5,448.5C 819.105,444.815 818.938,441.148 819,437.5C 837.932,423.381 844.432,405.048 838.5,382.5C 838.5,382.167 838.5,381.833 838.5,381.5C 835.507,371.318 829.84,362.818 821.5,356C 823.68,352.114 825.014,347.947 825.5,343.5C 827.403,340.47 828.737,337.137 829.5,333.5C 844.531,298.394 858.198,262.728 870.5,226.5C 873.16,223.085 874.993,219.085 876,214.5C 876.212,217.758 876.712,220.924 877.5,224C 876.738,319.812 876.738,415.312 877.5,510.5 Z M 759.5,288.5 C 759.5,288.833 759.5,289.167 759.5,289.5C 759.473,295.836 760.473,302.002 762.5,308C 762.265,308.873 761.931,309.707 761.5,310.5C 761.846,311.696 762.346,311.696 763,310.5C 764.925,323.577 767.091,336.577 769.5,349.5C 768.003,352.252 766.003,354.586 763.5,356.5C 759.194,358.806 755.861,362.139 753.5,366.5C 751.742,368.141 750.242,370.141 749,372.5C 748.831,327.262 748.331,282.096 747.5,237C 749,233.989 749.834,234.489 750,238.5C 752.255,255.486 755.422,272.153 759.5,288.5 Z M 398.5,248.5 C 404.762,258.423 411.762,267.756 419.5,276.5C 430.4,293.066 442.067,309.066 454.5,324.5C 459.363,332.876 464.863,340.876 471,348.5C 471.671,349.252 472.504,349.586 473.5,349.5C 473.5,349.833 473.5,350.167 473.5,350.5C 493.241,378.299 513.241,405.966 533.5,433.5C 540.447,444.406 548.114,454.74 556.5,464.5C 556.483,466.028 555.816,466.528 554.5,466C 537.978,456.442 521.644,446.608 505.5,436.5C 502.596,434.88 499.596,433.547 496.5,432.5C 471.953,416.429 446.953,401.095 421.5,386.5C 417.459,383.806 413.792,380.639 410.5,377C 411.918,373.999 412.751,370.832 413,367.5C 414.994,354.192 413.161,341.525 407.5,329.5C 407.5,328.833 407.167,328.5 406.5,328.5C 402.835,321.387 397.835,315.221 391.5,310C 385.959,306.735 380.626,303.235 375.5,299.5C 377.912,284.734 379.746,270.068 381,255.5C 386.716,253.065 392.549,250.732 398.5,248.5 Z M 150.5,286.5 C 150.369,289.84 150.369,293.173 150.5,296.5C 156.621,323.695 161.954,351.028 166.5,378.5C 166.328,379.492 166.662,380.158 167.5,380.5C 169.09,394.799 171.757,409.132 175.5,423.5C 175.08,425.326 175.08,427.326 175.5,429.5C 176.11,430.391 176.443,431.391 176.5,432.5C 178.402,444.707 180.735,456.707 183.5,468.5C 185.421,483.609 188.088,498.609 191.5,513.5C 194.166,529.427 197.166,545.427 200.5,561.5C 201.234,562.708 201.567,564.041 201.5,565.5C 203.085,575.255 205.085,584.922 207.5,594.5C 207.248,596.073 206.582,597.406 205.5,598.5C 204.833,598.5 204.5,598.833 204.5,599.5C 194.511,605.735 188.511,614.735 186.5,626.5C 183.915,634.172 183.915,641.839 186.5,649.5C 186.132,653.044 187.132,656.044 189.5,658.5C 190.739,661.589 192.239,664.589 194,667.5C 197.396,670.393 200.229,673.726 202.5,677.5C 201.675,679.801 201.008,682.135 200.5,684.5C 197.976,688.063 196.309,692.063 195.5,696.5C 195.5,696.833 195.5,697.167 195.5,697.5C 190.472,706.241 186.472,715.574 183.5,725.5C 178.892,734.193 174.725,743.193 171,752.5C 168.727,758.486 166.561,764.486 164.5,770.5C 163.833,770.5 163.5,770.833 163.5,771.5C 160.5,779.501 157.5,787.501 154.5,795.5C 151.943,799.809 149.943,804.476 148.5,809.5C 147.833,809.5 147.5,809.833 147.5,810.5C 146.68,812.812 145.847,815.146 145,817.5C 144.5,750.834 144.333,684.167 144.5,617.5C 144.5,543.5 144.5,469.5 144.5,395.5C 144.333,352.499 144.5,309.499 145,266.5C 146.766,272.021 147.933,277.688 148.5,283.5C 148.64,285.03 149.307,286.03 150.5,286.5 Z M 394.5,409.5 C 405.5,421.167 416.833,432.5 428.5,443.5C 472.488,486.988 516.154,530.488 559.5,574C 560.094,574.464 560.761,574.631 561.5,574.5C 563.513,577.835 565.846,580.835 568.5,583.5C 551.449,572.643 534.116,562.31 516.5,552.5C 487.704,534.264 458.704,516.264 429.5,498.5C 424.645,491.46 419.311,484.793 413.5,478.5C 413.291,477.078 412.791,475.745 412,474.5C 404.561,463.461 396.061,453.295 386.5,444C 378.739,438.06 370.072,434.227 360.5,432.5C 360.167,432.5 359.833,432.5 359.5,432.5C 359.018,431.584 358.685,430.584 358.5,429.5C 359.265,425.165 360.098,421.165 361,417.5C 365.781,416.356 370.281,414.689 374.5,412.5C 379.218,410.702 383.885,408.702 388.5,406.5C 390.511,407.519 392.511,408.519 394.5,409.5 Z M 748.5,417.5 C 751.459,422.784 755.125,427.451 759.5,431.5C 760.916,433.916 762.916,435.916 765.5,437.5C 765.833,438.5 766.167,439.5 766.5,440.5C 764.316,448.244 761.982,455.91 759.5,463.5C 755.555,472.234 752.055,481.234 749,490.5C 748.772,468.656 748.272,446.823 747.5,425C 747.625,422.449 747.958,419.949 748.5,417.5 Z M 445.5,427.5 C 447.5,428.167 449.5,428.833 451.5,429.5C 451.821,431.048 452.821,431.715 454.5,431.5C 467.398,441.059 481.065,449.393 495.5,456.5C 503.965,462.572 512.965,467.906 522.5,472.5C 527.408,477.065 533.075,480.398 539.5,482.5C 539.369,483.376 539.702,484.043 540.5,484.5C 553.414,492.451 566.414,500.118 579.5,507.5C 585.655,510.75 591.322,514.75 596.5,519.5C 598.749,523.598 601.249,527.598 604,531.5C 608.697,537.688 613.531,543.688 618.5,549.5C 622.401,555.616 626.567,561.616 631,567.5C 632.98,569.899 635.147,571.899 637.5,573.5C 643.445,581.325 651.111,586.991 660.5,590.5C 661.172,591.267 662.005,591.934 663,592.5C 664.075,596.77 664.575,601.103 664.5,605.5C 657.713,605.988 651.713,608.322 646.5,612.5C 642.878,614.672 639.211,616.506 635.5,618C 627.272,609.604 618.938,601.437 610.5,593.5C 610.631,592.761 610.464,592.094 610,591.5C 600.529,581.564 590.695,572.231 580.5,563.5C 567.523,549.523 553.856,536.19 539.5,523.5C 539.631,522.761 539.464,522.094 539,521.5C 534.822,517.763 530.655,514.097 526.5,510.5C 513.888,495.887 500.221,482.221 485.5,469.5C 481.215,463.215 475.882,457.882 469.5,453.5C 461.444,444.781 453.444,436.115 445.5,427.5 Z M 805.5,490.5 C 805.276,495.059 805.942,499.392 807.5,503.5C 807.942,508.436 808.942,513.269 810.5,518C 809.452,520.395 809.785,522.562 811.5,524.5C 819.229,572.815 827.896,620.815 837.5,668.5C 840.205,685.389 842.872,702.055 845.5,718.5C 850.841,746.625 856.174,774.625 861.5,802.5C 861.5,802.833 861.5,803.167 861.5,803.5C 862.954,813.395 864.954,823.061 867.5,832.5C 867.5,833.833 867.5,835.167 867.5,836.5C 869.433,845.761 870.6,855.095 871,864.5C 870.004,862.34 868.504,860.673 866.5,859.5C 857.859,850.021 849.359,840.354 841,830.5C 840.329,829.748 839.496,829.414 838.5,829.5C 836.3,825.12 833.467,821.12 830,817.5C 808.634,793.97 787.134,770.637 765.5,747.5C 761.954,741.775 757.787,736.441 753,731.5C 749.938,728.268 746.771,725.268 743.5,722.5C 737.855,714.618 731.688,706.951 725,699.5C 725.83,695.478 726.996,691.478 728.5,687.5C 729.497,687.53 730.164,687.03 730.5,686C 740.385,651.78 730.051,625.947 699.5,608.5C 698.808,605.23 698.808,601.897 699.5,598.5C 699.5,598.167 699.5,597.833 699.5,597.5C 700.267,596.828 700.934,595.995 701.5,595C 705.999,593.307 710.332,591.474 714.5,589.5C 723.7,586.398 731.366,581.064 737.5,573.5C 742.236,569.255 746.069,564.255 749,558.5C 751.968,550.95 754.468,543.284 756.5,535.5C 758.584,532.947 759.917,529.947 760.5,526.5C 770.016,499.476 779.516,472.476 789,445.5C 791.796,445.037 794.629,445.037 797.5,445.5C 798.328,452.153 799.162,458.82 800,465.5C 801.781,473.909 803.614,482.242 805.5,490.5 Z M 264.5,602.5 C 264.167,602.5 263.833,602.5 263.5,602.5C 261.527,600.699 259.861,598.699 258.5,596.5C 262.351,584.753 266.351,573.087 270.5,561.5C 272.267,559.208 273.267,556.542 273.5,553.5C 274.41,551.981 275.243,550.315 276,548.5C 276.382,554.677 276.882,560.844 277.5,567C 276.734,583.487 276.234,599.987 276,616.5C 272.865,611.211 269.031,606.544 264.5,602.5 Z M 478.5,554.5 C 479.899,555.89 481.566,556.89 483.5,557.5C 491.499,563.837 500.166,569.17 509.5,573.5C 517.788,579.651 526.455,585.317 535.5,590.5C 544.363,596.097 553.363,601.43 562.5,606.5C 564.975,609.241 567.975,611.241 571.5,612.5C 577.03,616.097 582.696,619.43 588.5,622.5C 596.938,628.561 605.605,634.395 614.5,640C 615.99,640.745 616.99,641.912 617.5,643.5C 614.618,654.653 613.784,665.986 615,677.5C 615.658,681.445 616.825,685.112 618.5,688.5C 618.992,690.819 619.992,692.819 621.5,694.5C 625.388,703.721 631.721,710.721 640.5,715.5C 643.933,718.059 647.599,720.392 651.5,722.5C 651.833,725.833 652.167,729.167 652.5,732.5C 651.539,746.492 650.706,760.492 650,774.5C 648.69,775.897 647.19,776.897 645.5,777.5C 642.06,778.091 638.727,779.091 635.5,780.5C 633.599,778.994 631.932,777.327 630.5,775.5C 622.321,763.138 613.654,751.138 604.5,739.5C 602.984,736.467 600.984,733.8 598.5,731.5C 591.901,720.631 584.568,710.298 576.5,700.5C 576.262,698.596 575.262,697.262 573.5,696.5C 568.142,687.115 561.808,678.449 554.5,670.5C 546.81,657.785 538.144,645.785 528.5,634.5C 520.245,622.239 511.579,610.239 502.5,598.5C 497.431,592.04 492.598,585.373 488,578.5C 487.329,577.748 486.496,577.414 485.5,577.5C 484.165,573.505 481.831,570.172 478.5,567.5C 478.262,565.596 477.262,564.262 475.5,563.5C 472.938,558.594 469.938,553.927 466.5,549.5C 467.365,548.417 468.365,548.251 469.5,549C 472.479,550.93 475.479,552.763 478.5,554.5 Z M 277.5,663.5 C 276.833,709.167 276.167,754.833 275.5,800.5C 272.506,782.875 269.673,765.542 267,748.5C 266.61,745.896 265.776,743.562 264.5,741.5C 264.367,731.356 262.7,721.69 259.5,712.5C 258.5,705.167 257.5,697.833 256.5,690.5C 256.167,689.833 255.833,689.167 255.5,688.5C 255.337,686.143 255.503,683.81 256,681.5C 263.401,676.934 269.234,670.934 273.5,663.5C 274.594,661.164 275.927,661.164 277.5,663.5 Z M 236.5,701.5 C 235.721,703.42 235.387,705.253 235.5,707C 239.704,728.094 243.87,749.26 248,770.5C 248.278,771.416 248.778,772.082 249.5,772.5C 249.5,773.5 249.5,774.5 249.5,775.5C 252.294,791.472 254.961,807.472 257.5,823.5C 257.263,824.791 257.596,825.791 258.5,826.5C 259.472,833.359 260.805,840.025 262.5,846.5C 263.229,853.039 264.229,859.539 265.5,866C 264.571,867.077 263.904,868.244 263.5,869.5C 259.435,871.233 256.768,874.233 255.5,878.5C 252.159,881.84 249.826,885.84 248.5,890.5C 248.092,891.643 247.425,892.643 246.5,893.5C 221.861,893.16 197.194,892.493 172.5,891.5C 168.978,880.625 162.645,871.625 153.5,864.5C 153.167,863.5 152.833,862.5 152.5,861.5C 153.503,857.488 154.503,853.488 155.5,849.5C 159.567,840.732 163.234,831.732 166.5,822.5C 168.293,820.574 169.293,818.241 169.5,815.5C 175.224,803.04 180.724,790.373 186,777.5C 186.849,774.479 187.683,771.479 188.5,768.5C 192.927,760.976 196.261,752.976 198.5,744.5C 203.057,735.524 207.057,726.19 210.5,716.5C 215.041,707.072 219.374,697.406 223.5,687.5C 226.74,687.024 230.073,687.024 233.5,687.5C 233.044,692.607 234.044,697.274 236.5,701.5 Z M 704.5,715.5 C 705.873,715.343 707.207,715.51 708.5,716C 721.039,729.537 733.206,743.37 745,757.5C 745.671,758.252 746.504,758.586 747.5,758.5C 747.5,758.833 747.5,759.167 747.5,759.5C 753.5,766.5 759.5,773.5 765.5,780.5C 765.5,781.167 765.833,781.5 766.5,781.5C 770.873,787.536 775.873,792.869 781.5,797.5C 805.235,823.896 828.568,850.563 851.5,877.5C 849.565,876.85 847.565,876.517 845.5,876.5C 844.097,875.069 842.431,873.902 840.5,873C 829.727,869.244 819.06,865.411 808.5,861.5C 795.322,855.991 781.989,850.658 768.5,845.5C 763.686,843.116 758.686,841.116 753.5,839.5C 738.659,833.266 723.659,827.1 708.5,821C 706.307,814.243 703.641,807.743 700.5,801.5C 699.876,799.246 698.543,797.579 696.5,796.5C 692.837,790.507 687.837,785.84 681.5,782.5C 678.848,780.856 676.181,779.189 673.5,777.5C 674.132,760.469 675.299,743.469 677,726.5C 682.287,724.99 687.454,723.323 692.5,721.5C 696.548,720.642 700.215,718.975 703.5,716.5C 704.167,716.5 704.5,716.167 704.5,715.5 Z M 707.5,844.5 C 711.444,846.964 715.777,848.63 720.5,849.5C 724.063,852.024 728.063,853.691 732.5,854.5C 737.204,856.941 742.204,858.941 747.5,860.5C 751.624,862.618 755.957,864.285 760.5,865.5C 776.864,872.737 793.53,879.403 810.5,885.5C 815.688,888.075 821.022,890.575 826.5,893C 813.838,893.5 801.171,893.667 788.5,893.5C 765.004,892.668 741.337,892.168 717.5,892C 716.255,891.209 714.922,890.709 713.5,890.5C 709.167,887.5 705.5,883.833 702.5,879.5C 698.941,872.053 694.607,865.053 689.5,858.5C 694.036,854.129 698.036,849.295 701.5,844C 703.488,843.82 705.488,843.986 707.5,844.5 Z"/></g>
<g><path style="opacity:0.098" fill="#1e2241" d="M 122.5,52.5 C 140.587,55.0671 154.92,64.0671 165.5,79.5C 160.336,74.504 155.003,69.6706 149.5,65C 136.117,56.2896 121.45,52.4562 105.5,53.5C 106.492,53.6716 107.158,53.3382 107.5,52.5C 112.5,51.1667 117.5,51.1667 122.5,52.5 Z"/></g>
<g><path style="opacity:0.016" fill="#1b223c" d="M 964.5,105.5 C 962.985,100.131 961.152,94.7977 959,89.5C 951.305,73.6913 939.139,62.5246 922.5,56C 906.298,52.9819 890.632,54.4819 875.5,60.5C 879.299,57.4962 883.632,55.3295 888.5,54C 918.967,47.1493 942.801,57.9826 960,86.5C 963.139,92.7411 964.639,99.0744 964.5,105.5 Z"/></g>
<g><path style="opacity:0.078" fill="#1d2040" d="M 772.5,81.5 C 772.44,82.0431 772.107,82.3764 771.5,82.5C 759.209,64.5334 742.209,55.2001 720.5,54.5C 712.816,55.2814 705.149,56.2814 697.5,57.5C 703.303,54.3035 709.636,52.8035 716.5,53C 713.063,52.3507 712.896,51.8507 716,51.5C 740.397,51.4732 759.23,61.4732 772.5,81.5 Z"/></g>
<g><path style="opacity:0.184" fill="#1f253c" d="M 683.5,66.5 C 678.509,72.4655 673.509,78.4655 668.5,84.5C 671.329,76.6725 676.329,70.6725 683.5,66.5 Z"/></g>
<g><path style="opacity:0.224" fill="#10182c" d="M 72.5,72.5 C 71.4707,75.8908 69.4707,78.5574 66.5,80.5C 67.4423,76.9098 69.4423,74.2431 72.5,72.5 Z"/></g>
<g><path style="opacity:0.004" fill="#101419" d="M 308.5,81.5 C 316.16,81.0759 323.493,82.0759 330.5,84.5C 329.833,84.5 329.5,84.8333 329.5,85.5C 324.967,84.0165 320.301,83.3498 315.5,83.5C 313.167,82.8333 310.833,82.1667 308.5,81.5 Z"/></g>
<g><path style="opacity:0.216" fill="#0d033d" d="M 165.5,79.5 C 166.473,79.9867 167.473,80.4867 168.5,81C 177.512,81.3187 186.512,81.8187 195.5,82.5C 232.84,82.5772 270.507,82.2439 308.5,81.5C 310.833,82.1667 313.167,82.8333 315.5,83.5C 265.829,83.8333 216.162,83.4999 166.5,82.5C 165.873,81.5832 165.539,80.5832 165.5,79.5 Z"/></g>
<g><path style="opacity:0.224" fill="#120c30" d="M 875.5,60.5 C 870.595,64.9012 865.762,69.5678 861,74.5C 858.94,77.2857 857.44,80.2857 856.5,83.5C 828.48,84.1582 800.813,83.4915 773.5,81.5C 800.502,81.6666 827.502,81.5 854.5,81C 860.065,72.601 867.065,65.7677 875.5,60.5 Z"/></g>
<g><path style="opacity:0.176" fill="#1c2642" d="M 66.5,80.5 C 64.9065,85.1295 63.2398,89.7962 61.5,94.5C 61,97.5 60.5,100.5 60,103.5C 59.6904,112.029 59.5237,120.363 59.5,128.5C 54.1411,111.298 56.4744,95.2982 66.5,80.5 Z"/></g>
<g><path style="opacity:0.125" fill="#151c31" d="M 331.5,85.5 C 340.761,88.5706 348.594,93.9039 355,101.5C 361.137,109.124 366.637,117.124 371.5,125.5C 365.162,118.811 359.495,111.478 354.5,103.5C 348.591,96.2647 341.258,90.9314 332.5,87.5C 331.702,87.0431 331.369,86.3764 331.5,85.5 Z"/></g>
<g><path style="opacity:0.004" fill="#000000" d="M 965.5,110.5 C 966.598,111.601 966.765,112.934 966,114.5C 965.51,113.207 965.343,111.873 965.5,110.5 Z"/></g>
<g><path style="opacity:0.318" fill="#293353" d="M 665.5,91.5 C 660.931,110.513 663.264,128.513 672.5,145.5C 666.596,138.317 663.096,129.983 662,120.5C 661.333,114.833 661.333,109.167 662,103.5C 662.259,99.1101 663.426,95.1101 665.5,91.5 Z"/></g>
<g><path style="opacity:0.453" fill="#3c6ac2" d="M 305.5,128.5 C 267.996,128.168 230.663,128.502 193.5,129.5C 192.624,129.631 191.957,129.298 191.5,128.5C 229.665,127.17 267.665,127.17 305.5,128.5 Z"/></g>
<g><path style="opacity:0.114" fill="#16152c" d="M 193.5,129.5 C 230.663,128.502 267.996,128.168 305.5,128.5C 306.492,128.328 307.158,128.662 307.5,129.5C 272.498,129.333 237.498,129.5 202.5,130C 203.5,130.333 204.5,130.667 205.5,131C 205.167,131.333 204.833,131.667 204.5,132C 212.234,134.244 219.734,137.078 227,140.5C 227.333,140.167 227.667,139.833 228,139.5C 231.93,141.413 235.763,143.413 239.5,145.5C 223.931,140.709 208.598,135.376 193.5,129.5 Z"/></g>
<g><path style="opacity:0.008" fill="#0e0d25" d="M 855.5,141.5 C 852.763,138.017 851.097,134.017 850.5,129.5C 825.477,128.843 800.811,129.51 776.5,131.5C 775.596,130.791 775.263,129.791 775.5,128.5C 800.836,128.333 826.169,128.5 851.5,129C 853.335,133.004 854.668,137.17 855.5,141.5 Z"/></g>
<g><path style="opacity:0.027" fill="#1f2d3e" d="M 315.5,132.5 C 321.316,137.478 325.649,143.478 328.5,150.5C 323.679,144.862 319.346,138.862 315.5,132.5 Z"/></g>
<g><path style="opacity:0.012" fill="#1c1f34" d="M 964.5,107.5 C 966.01,125.81 960.343,141.477 947.5,154.5C 941.906,159.107 936.24,163.441 930.5,167.5C 930.672,166.508 930.338,165.842 929.5,165.5C 929.5,165.167 929.5,164.833 929.5,164.5C 953.143,152.857 964.809,133.857 964.5,107.5 Z"/></g>
<g><path style="opacity:0.027" fill="#141931" d="M 372.5,126.5 C 378.742,134.648 384.742,142.982 390.5,151.5C 383.593,143.893 377.26,135.726 371.5,127C 371.728,126.601 372.062,126.435 372.5,126.5 Z"/></g>
<g><path style="opacity:0.031" fill="#1d233c" d="M 59.5,129.5 C 60.3764,129.369 61.0431,129.702 61.5,130.5C 66.5725,141.326 73.5725,150.66 82.5,158.5C 77.6505,156.164 73.4839,152.831 70,148.5C 65.9516,142.397 62.4516,136.064 59.5,129.5 Z"/></g>
<g><path style="opacity:0.031" fill="#1b222b" d="M 775.5,132.5 C 774.54,137.086 772.54,141.086 769.5,144.5C 770.46,139.914 772.46,135.914 775.5,132.5 Z"/></g>
<g><path style="opacity:0.286" fill="#252c48" d="M 175.5,144.5 C 173.323,144.414 171.323,143.747 169.5,142.5C 169.167,142.833 168.833,143.167 168.5,143.5C 169.63,144.622 170.297,145.956 170.5,147.5C 166.973,145.422 165.473,142.755 166,139.5C 169.694,140.36 172.861,142.027 175.5,144.5 Z"/></g>
<g><path style="opacity:0.995" fill="#618fd5" d="M 176.5,144.5 C 181.247,145.081 185.914,146.081 190.5,147.5C 192.413,146.627 194.247,145.627 196,144.5C 218.308,154.07 240.308,162.403 262,169.5C 274.24,175.81 287.074,180.977 300.5,185C 301.815,186.395 301.481,187.395 299.5,188C 300.167,189.333 301.167,190.333 302.5,191C 305.49,191.897 308.49,192.731 311.5,193.5C 316.363,190.803 321.03,191.303 325.5,195C 323.572,196.681 323.239,198.514 324.5,200.5C 307.536,194.674 290.87,188.341 274.5,181.5C 266.993,176.384 258.66,173.051 249.5,171.5C 245.344,169.597 241.011,167.931 236.5,166.5C 233.11,165.977 229.777,165.143 226.5,164C 209.805,157.436 193.138,150.936 176.5,144.5 Z"/></g>
<g><path style="opacity:0.051" fill="#26385c" d="M 672.5,145.5 C 677.167,149.5 681.5,153.833 685.5,158.5C 679.597,155.719 675.263,151.386 672.5,145.5 Z"/></g>
<g><path style="opacity:0.306" fill="#1d2439" d="M 172.5,149.5 C 177.873,153.871 182.539,158.871 186.5,164.5C 184.983,164.489 183.816,163.823 183,162.5C 179.263,158.273 175.763,153.94 172.5,149.5 Z"/></g>
<g><path style="opacity:0.016" fill="#1c203b" d="M 163.5,169.5 C 158.858,165.69 154.691,161.356 151,156.5C 151.739,165.434 152.573,174.434 153.5,183.5C 150.33,174.228 148.663,164.562 148.5,154.5C 149.552,154.351 150.552,154.517 151.5,155C 155.735,159.726 159.735,164.559 163.5,169.5 Z"/></g>
<g><path style="opacity:0.137" fill="#172133" d="M 297.5,166.5 C 294.83,167.68 292.164,167.513 289.5,166C 285.351,163.634 281.018,161.634 276.5,160C 268.35,156.728 260.017,154.061 251.5,152C 248.938,150.207 246.272,148.707 243.5,147.5C 244.117,147.389 244.617,147.056 245,146.5C 262.07,153.588 279.57,160.255 297.5,166.5 Z"/></g>
<g><path style="opacity:0.995" fill="#79b4fc" d="M 928.5,165.5 C 928.5,396.167 928.5,626.833 928.5,857.5C 927.504,857.414 926.671,857.748 926,858.5C 925.167,627.833 925.333,397.166 926.5,166.5C 927.183,166.137 927.85,165.804 928.5,165.5 Z"/></g>
<g><path style="opacity:0.227" fill="#18223b" d="M 390.5,151.5 C 396.809,158.116 402.143,165.45 406.5,173.5C 399.932,166.952 394.598,159.618 390.5,151.5 Z"/></g>
<g><path style="opacity:0.016" fill="#1a1523" d="M 236.5,166.5 C 241.011,167.931 245.344,169.597 249.5,171.5C 244.564,171.191 240.231,169.524 236.5,166.5 Z"/></g>
<g><path style="opacity:0.463" fill="#26284d" d="M 864.5,153.5 C 867.86,155.213 871.193,156.88 874.5,158.5C 873.234,161.301 872.401,164.301 872,167.5C 870.974,170.239 869.474,172.572 867.5,174.5C 869.816,169.73 870.982,164.73 871,159.5C 868.336,158.002 866.17,156.002 864.5,153.5 Z"/></g>
<g><path style="opacity:0.278" fill="#222749" d="M 249.5,171.5 C 258.66,173.051 266.993,176.384 274.5,181.5C 265.784,178.932 257.451,175.599 249.5,171.5 Z"/></g>
<g><path style="opacity:0.239" fill="#1e2448" d="M 183.5,191.5 C 176.464,185.465 170.131,178.798 164.5,171.5C 164.435,171.062 164.601,170.728 165,170.5C 172.084,176.747 178.251,183.747 183.5,191.5 Z"/></g>
<g><path style="opacity:0.051" fill="#1a202d" d="M 189.5,167.5 C 195.155,172.157 200.155,177.491 204.5,183.5C 201.606,182.118 199.106,180.118 197,177.5C 194.283,174.29 191.783,170.956 189.5,167.5 Z"/></g>
<g><path style="opacity:0.043" fill="#21273b" d="M 328.5,150.5 C 329.794,151.29 330.961,152.29 332,153.5C 336.298,159.932 340.464,166.432 344.5,173C 342.854,177.13 340.354,180.63 337,183.5C 325.346,179.506 313.846,175.34 302.5,171C 300.569,170.098 298.903,168.931 297.5,167.5C 311.005,171.45 324.005,176.116 336.5,181.5C 339.12,179.088 341.12,176.255 342.5,173C 337.442,165.712 332.776,158.212 328.5,150.5 Z"/></g>
<g><path style="opacity:0.149" fill="#252c43" d="M 769.5,144.5 C 766.451,150.387 762.118,155.221 756.5,159C 762.917,184.929 768.25,211.429 772.5,238.5C 771.625,237.05 770.458,235.05 769,232.5C 765.661,208.138 761.161,183.972 755.5,160C 755.667,159.167 755.833,158.333 756,157.5C 760.949,153.567 765.449,149.234 769.5,144.5 Z"/></g>
<g><path style="opacity:0.024" fill="#192133" d="M 412.5,181.5 C 417.469,187.312 422.303,193.312 427,199.5C 428.777,202.059 430.277,204.726 431.5,207.5C 425.501,200.665 419.668,193.665 414,186.5C 413.392,184.846 412.892,183.179 412.5,181.5 Z"/></g>
<g><path style="opacity:0.325" fill="#1b2641" d="M 204.5,183.5 C 212.196,191.194 219.529,199.194 226.5,207.5C 223.565,205.409 220.732,203.075 218,200.5C 212.882,195.227 208.382,189.561 204.5,183.5 Z"/></g>
<g><path style="opacity:0.145" fill="#191d2b" d="M 183.5,191.5 C 189.127,196.131 194.127,201.464 198.5,207.5C 196.484,206.544 194.651,205.21 193,203.5C 189.596,199.606 186.429,195.606 183.5,191.5 Z"/></g>
<g><path style="opacity:0.861" fill="#486389" d="M 324.5,200.5 C 327.167,200.5 329.833,200.5 332.5,200.5C 332.418,207.858 332.752,215.191 333.5,222.5C 332.833,221.833 332.167,221.167 331.5,220.5C 329.807,214.736 328.974,208.736 329,202.5C 328,201.167 327,201.167 326,202.5C 325.283,201.956 324.783,201.289 324.5,200.5 Z"/></g>
<g><path style="opacity:0.004" fill="#1b2138" d="M 198.5,207.5 C 211.996,222.172 225.829,236.838 240,251.5C 245.001,257.998 250.167,264.331 255.5,270.5C 253.629,270.141 252.129,269.141 251,267.5C 233.933,248.273 216.766,229.273 199.5,210.5C 198.873,209.583 198.539,208.583 198.5,207.5 Z"/></g>
<g><path style="opacity:0.016" fill="#0e1625" d="M 226.5,207.5 C 230.898,210.895 234.564,214.895 237.5,219.5C 233.102,216.105 229.436,212.105 226.5,207.5 Z"/></g>
<g><path style="opacity:0.137" fill="#212547" d="M 153.5,183.5 C 157.617,206.203 161.951,228.87 166.5,251.5C 165.883,251.611 165.383,251.944 165,252.5C 163.314,247.577 161.981,242.577 161,237.5C 159.727,223.642 157.393,209.975 154,196.5C 153.501,192.179 153.334,187.846 153.5,183.5 Z"/></g>
<g><path style="opacity:0.18" fill="#2b3348" d="M 855.5,206.5 C 855.11,209.839 854.61,213.173 854,216.5C 851.43,222.103 848.597,227.437 845.5,232.5C 848.32,223.545 851.653,214.878 855.5,206.5 Z"/></g>
<g><path style="opacity:0.02" fill="#1a2739" d="M 331.5,220.5 C 332.167,221.167 332.833,221.833 333.5,222.5C 334.956,227.468 337.123,232.135 340,236.5C 343.729,240.398 347.562,244.065 351.5,247.5C 340.229,241.898 333.563,232.898 331.5,220.5 Z"/></g>
<g><path style="opacity:0.004" fill="#1b2136" d="M 431.5,207.5 C 443.933,222.934 455.6,238.934 466.5,255.5C 465.279,254.972 464.113,254.305 463,253.5C 454.837,241.191 446.171,229.191 437,217.5C 434.888,214.273 433.055,210.94 431.5,207.5 Z"/></g>
<g><path style="opacity:0.102" fill="#1a271b" d="M 773.5,240.5 C 774.167,245.833 774.833,251.167 775.5,256.5C 773.123,251.308 772.456,245.974 773.5,240.5 Z"/></g>
<g><path style="opacity:0.153" fill="#171b2f" d="M 237.5,219.5 C 244.302,226.35 251.136,233.35 258,240.5C 260.41,243.397 262.577,246.397 264.5,249.5C 254.795,240.128 245.795,230.128 237.5,219.5 Z"/></g>
<g><path style="opacity:0.082" fill="#1a233a" d="M 398.5,248.5 C 400.017,248.511 401.184,249.177 402,250.5C 408.101,259.051 413.935,267.718 419.5,276.5C 411.762,267.756 404.762,258.423 398.5,248.5 Z"/></g>
<g><path style="opacity:0.188" fill="#162124" d="M 264.5,249.5 C 271.126,255.129 277.126,261.462 282.5,268.5C 275.874,262.871 269.874,256.538 264.5,249.5 Z"/></g>
<g><path style="opacity:0.086" fill="#202741" d="M 839.5,249.5 C 839.47,254.412 837.97,258.745 835,262.5C 832.307,269.664 829.473,276.664 826.5,283.5C 829.331,271.439 833.664,260.106 839.5,249.5 Z"/></g>
<g><path style="opacity:0.076" fill="#0e140b" d="M 776.5,258.5 C 777.587,263.433 778.253,268.433 778.5,273.5C 777.217,269.7 776.217,265.7 775.5,261.5C 775.52,260.274 775.853,259.274 776.5,258.5 Z"/></g>
<g><path style="opacity:0.125" fill="#20253d" d="M 255.5,270.5 C 259.801,274.966 264.301,279.3 269,283.5C 270.421,285.405 271.588,287.405 272.5,289.5C 265.699,284.04 260.032,277.707 255.5,270.5 Z"/></g>
<g><path style="opacity:0.027" fill="#171b33" d="M 292.5,279.5 C 299.558,285.556 305.891,292.222 311.5,299.5C 310.504,299.586 309.671,299.252 309,298.5C 303.297,292.3 297.797,285.967 292.5,279.5 Z"/></g>
<g><path style="opacity:0.078" fill="#1a263a" d="M 466.5,255.5 C 469.469,258.642 472.302,261.975 475,265.5C 480.768,273.747 486.268,282.08 491.5,290.5C 483.578,280.066 475.411,269.733 467,259.5C 466.51,258.207 466.343,256.873 466.5,255.5 Z"/></g>
<g><path style="opacity:0.039" fill="#131914" d="M 779.5,275.5 C 780.797,280.737 781.464,286.07 781.5,291.5C 779.978,287.417 778.978,283.084 778.5,278.5C 778.52,277.274 778.853,276.274 779.5,275.5 Z"/></g>
<g><path style="opacity:0.071" fill="#1a2237" d="M 272.5,289.5 C 274.716,290.203 276.549,291.536 278,293.5C 283.082,299.348 287.915,305.348 292.5,311.5C 285.543,304.538 278.876,297.204 272.5,289.5 Z"/></g>
<g><path style="opacity:0.106" fill="#1f1f2a" d="M 170.5,280.5 C 174.258,295.224 177.258,310.224 179.5,325.5C 178.2,321.999 177.034,318.333 176,314.5C 173.844,303.213 172.011,291.879 170.5,280.5 Z"/></g>
<g><path style="opacity:0.024" fill="#21273d" d="M 150.5,286.5 C 156.034,313.34 161.534,340.34 167,367.5C 167.81,371.358 167.643,375.024 166.5,378.5C 161.954,351.028 156.621,323.695 150.5,296.5C 150.369,293.173 150.369,289.84 150.5,286.5 Z"/></g>
<g><path style="opacity:0.733" fill="#222844" d="M 353.5,248.5 C 355.435,249.15 357.435,249.483 359.5,249.5C 357.833,266.171 356.166,282.837 354.5,299.5C 350.818,299.335 347.152,299.501 343.5,300C 337.566,300.869 331.9,302.369 326.5,304.5C 328.7,302.36 331.367,300.86 334.5,300C 340.733,298.953 346.9,297.786 353,296.5C 354.445,283.207 355.945,270.207 357.5,257.5C 357.333,255.5 357.167,253.5 357,251.5C 355.482,250.837 354.315,249.837 353.5,248.5 Z"/></g>
<g><path style="opacity:0.157" fill="#1a2030" d="M 419.5,276.5 C 425.166,283.002 430.666,289.669 436,296.5C 442.448,305.752 448.614,315.086 454.5,324.5C 442.067,309.066 430.4,293.066 419.5,276.5 Z"/></g>
<g><path style="opacity:0.435" fill="#1d2136" d="M 824.5,287.5 C 823.312,292.565 821.812,297.565 820,302.5C 816.84,308.649 814.173,314.982 812,321.5C 810.974,324.239 809.474,326.572 807.5,328.5C 812.74,314.974 818.407,301.307 824.5,287.5 Z"/></g>
<g><path style="opacity:0.808" fill="#2c3b55" d="M 311.5,299.5 C 314.354,300.973 316.688,303.14 318.5,306C 321.332,306.326 323.999,305.826 326.5,304.5C 324.911,306.306 322.911,307.639 320.5,308.5C 316.09,306.757 313.09,303.757 311.5,299.5 Z"/></g>
<g><path style="opacity:0.11" fill="#1c231f" d="M 781.5,291.5 C 782.61,296.767 783.943,302.101 785.5,307.5C 784.873,308.417 784.539,309.417 784.5,310.5C 782.419,304.464 781.419,298.131 781.5,291.5 Z"/></g>
<g><path style="opacity:0.118" fill="#151a2f" d="M 491.5,290.5 C 492.496,290.414 493.329,290.748 494,291.5C 508.467,310.787 522.301,330.454 535.5,350.5C 527.912,340.4 520.079,330.4 512,320.5C 505.366,310.366 498.533,300.366 491.5,290.5 Z"/></g>
<g><path style="opacity:0.369" fill="#2a2f52" d="M 759.5,289.5 C 764.89,310.426 768.39,331.759 770,353.5C 768.13,355.219 765.963,356.219 763.5,356.5C 766.003,354.586 768.003,352.252 769.5,349.5C 767.091,336.577 764.925,323.577 763,310.5C 762.346,311.696 761.846,311.696 761.5,310.5C 761.931,309.707 762.265,308.873 762.5,308C 760.473,302.002 759.473,295.836 759.5,289.5 Z"/></g>
<g><path style="opacity:0.02" fill="#262a40" d="M 398.5,248.5 C 392.549,250.732 386.716,253.065 381,255.5C 379.746,270.068 377.912,284.734 375.5,299.5C 380.626,303.235 385.959,306.735 391.5,310C 397.835,315.221 402.835,321.387 406.5,328.5C 400.734,320.9 394.068,314.066 386.5,308C 382.667,306.167 378.833,304.333 375,302.5C 375.376,285.741 376.876,269.074 379.5,252.5C 382.568,252.453 385.568,251.953 388.5,251C 391.221,248.973 394.221,247.473 397.5,246.5C 398.298,246.957 398.631,247.624 398.5,248.5 Z"/></g>
<g><path style="opacity:0.024" fill="#0f201f" d="M 82.5,158.5 C 83.8734,158.343 85.2068,158.51 86.5,159C 88.1591,160.841 90.1591,162.008 92.5,162.5C 92.8333,394.834 92.5,627.168 91.5,859.5C 90.1502,860.95 88.4835,861.617 86.5,861.5C 87.4057,860.035 88.739,859.035 90.5,858.5C 91.6667,626.834 91.8333,395.167 91,163.5C 90.6667,163.833 90.3333,164.167 90,164.5C 87.5216,162.361 85.0216,160.361 82.5,158.5 Z"/></g>
<g><path style="opacity:0.004" fill="#191e2e" d="M 454.5,324.5 C 456.129,325.625 457.629,326.959 459,328.5C 464.054,335.38 468.887,342.38 473.5,349.5C 472.504,349.586 471.671,349.252 471,348.5C 464.863,340.876 459.363,332.876 454.5,324.5 Z"/></g>
<g><path style="opacity:0.161" fill="#1a2035" d="M 784.5,310.5 C 787.032,322.34 789.365,334.34 791.5,346.5C 794.579,346.74 797.579,346.407 800.5,345.5C 801.604,342.95 802.937,340.617 804.5,338.5C 804.002,341.829 803.002,344.995 801.5,348C 797.514,348.499 793.514,348.666 789.5,348.5C 787.995,335.794 786.329,323.128 784.5,310.5 Z"/></g>
<g><path style="opacity:0.243" fill="#384b57" d="M 759.5,288.5 C 755.422,272.153 752.255,255.486 750,238.5C 749.834,234.489 749,233.989 747.5,237C 748.331,282.096 748.831,327.262 749,372.5C 750.242,370.141 751.742,368.141 753.5,366.5C 751.371,371.434 749.204,376.434 747,381.5C 746.333,326.833 746.333,272.167 747,217.5C 752.711,240.821 756.878,264.488 759.5,288.5 Z"/></g>
<g><path style="opacity:0.077" fill="#2b2936" d="M 929.5,165.5 C 930.338,165.842 930.672,166.508 930.5,167.5C 931.502,262.932 931.502,358.932 930.5,455.5C 929.501,359.001 929.167,262.335 929.5,165.5 Z"/></g>
<g><path style="opacity:0.745" fill="#31476f" d="M 407.5,329.5 C 413.161,341.525 414.994,354.192 413,367.5C 412.751,370.832 411.918,373.999 410.5,377C 413.792,380.639 417.459,383.806 421.5,386.5C 418.243,385.538 415.243,384.038 412.5,382C 410.686,381.08 409.686,379.58 409.5,377.5C 413.008,361.465 412.008,345.798 406.5,330.5C 406.624,329.893 406.957,329.56 407.5,329.5 Z"/></g>
<g><path style="opacity:0.071" fill="#1c1f35" d="M 825.5,343.5 C 825.014,347.947 823.68,352.114 821.5,356C 829.84,362.818 835.507,371.318 838.5,381.5C 835.565,377.967 833.399,373.967 832,369.5C 828.631,365.963 825.131,362.629 821.5,359.5C 821.322,358.305 820.989,357.138 820.5,356C 821.733,352.567 822.733,349.067 823.5,345.5C 823.747,344.287 824.414,343.62 825.5,343.5 Z"/></g>
<g><path style="opacity:0.141" fill="#1b212f" d="M 535.5,350.5 C 541.538,356.883 546.871,363.883 551.5,371.5C 547.227,367.053 543.061,362.387 539,357.5C 537.807,355.114 536.64,352.78 535.5,350.5 Z"/></g>
<g><path style="opacity:0.094" fill="#0b121f" d="M 144.5,250.5 C 147.331,262.311 149.331,274.311 150.5,286.5C 149.307,286.03 148.64,285.03 148.5,283.5C 147.933,277.688 146.766,272.021 145,266.5C 144.5,309.499 144.333,352.499 144.5,395.5C 143.167,347.167 143.167,298.833 144.5,250.5 Z"/></g>
<g><path style="opacity:0.761" fill="#364778" d="M 179.5,328.5 C 183.962,345.481 187.295,362.814 189.5,380.5C 188.819,378.842 187.985,377.175 187,375.5C 184.499,359.803 181.999,344.136 179.5,328.5 Z"/></g>
<g><path style="opacity:0.157" fill="#121e26" d="M 552.5,372.5 C 557.802,379.476 563.136,386.476 568.5,393.5C 566.629,393.141 565.129,392.141 564,390.5C 559.711,384.755 555.544,378.921 551.5,373C 551.728,372.601 552.062,372.435 552.5,372.5 Z"/></g>
<g><path style="opacity:0.506" fill="#3b5793" d="M 929.5,164.5 C 929.5,164.833 929.5,165.167 929.5,165.5C 929.167,262.335 929.501,359.001 930.5,455.5C 931.833,456.167 931.833,456.833 930.5,457.5C 929.501,496.663 929.168,535.996 929.5,575.5C 929.5,590.5 929.5,605.5 929.5,620.5C 929.5,700.167 929.5,779.833 929.5,859.5C 928.662,859.158 928.328,858.492 928.5,857.5C 928.5,626.833 928.5,396.167 928.5,165.5C 928.5,164.833 928.833,164.5 929.5,164.5 Z"/></g>
<g><path style="opacity:0.004" fill="#1b212f" d="M 292.5,311.5 C 297.091,315.425 301.425,319.758 305.5,324.5C 293.666,341.211 291.5,359.211 299,378.5C 304.576,391.675 313.41,402.009 325.5,409.5C 322.101,407.969 318.767,406.135 315.5,404C 291.319,380.941 286.986,354.608 302.5,325C 299.325,320.333 295.991,315.833 292.5,311.5 Z"/></g>
<g><path style="opacity:0.106" fill="#262c3f" d="M 189.5,380.5 C 191.804,388.578 193.471,396.911 194.5,405.5C 191.2,397.623 189.533,389.29 189.5,380.5 Z"/></g>
<g><path style="opacity:0.087" fill="#191c53" d="M 878.5,227.5 C 878.5,321.833 878.5,416.167 878.5,510.5C 878.167,510.5 877.833,510.5 877.5,510.5C 876.738,415.312 876.738,319.812 877.5,224C 876.712,220.924 876.212,217.758 876,214.5C 874.993,219.085 873.16,223.085 870.5,226.5C 873.09,218.228 875.59,209.894 878,201.5C 878.5,210.16 878.666,218.827 878.5,227.5 Z"/></g>
<g><path style="opacity:0.027" fill="#292945" d="M 694.5,164.5 C 695.348,163.375 696.348,163.375 697.5,164.5C 697.833,268.335 697.499,372.001 696.5,475.5C 696.065,385.904 696.065,296.404 696.5,207C 696.333,193.167 696.167,179.333 696,165.5C 695.617,164.944 695.117,164.611 694.5,164.5 Z"/></g>
<g><path style="opacity:0.102" fill="#1a2235" d="M 473.5,350.5 C 475.129,351.625 476.629,352.959 478,354.5C 496.834,379.514 515.167,404.847 533,430.5C 533.483,431.448 533.649,432.448 533.5,433.5C 513.241,405.966 493.241,378.299 473.5,350.5 Z"/></g>
<g><path style="opacity:0.047" fill="#1f263c" d="M 394.5,409.5 C 392.511,408.519 390.511,407.519 388.5,406.5C 383.885,408.702 379.218,410.702 374.5,412.5C 378.999,409.655 383.665,406.989 388.5,404.5C 391.308,405.232 393.308,406.899 394.5,409.5 Z"/></g>
<g><path style="opacity:0.17" fill="#27303f" d="M 175.5,429.5 C 175.08,427.326 175.08,425.326 175.5,423.5C 171.757,409.132 169.09,394.799 167.5,380.5C 168.458,382.863 169.624,385.863 171,389.5C 171.75,399.682 173.416,409.682 176,419.5C 176.808,423.027 176.641,426.36 175.5,429.5 Z"/></g>
<g><path style="opacity:0.996" fill="#6598e1" d="M 579.5,507.5 C 566.414,500.118 553.414,492.451 540.5,484.5C 539.702,484.043 539.369,483.376 539.5,482.5C 535.541,480.171 531.874,477.337 528.5,474C 526.482,473.495 524.482,472.995 522.5,472.5C 512.965,467.906 503.965,462.572 495.5,456.5C 488.746,450.251 481.079,445.417 472.5,442C 468.287,439.4 464.287,436.567 460.5,433.5C 458.55,432.628 456.55,431.961 454.5,431.5C 452.821,431.715 451.821,431.048 451.5,429.5C 447.164,425.329 442.164,422.163 436.5,420C 435.635,418.641 434.635,417.474 433.5,416.5C 434.552,416.649 435.552,416.483 436.5,416C 435.167,414.333 433.833,412.667 432.5,411C 440.743,415.228 448.577,420.395 456,426.5C 456.333,426.167 456.667,425.833 457,425.5C 459.882,428.916 463.215,430.916 467,431.5C 471.477,435.074 476.144,438.408 481,441.5C 513.958,460.72 546.792,480.554 579.5,501C 578.5,501.833 577.5,502.667 576.5,503.5C 577.524,504.852 578.524,506.185 579.5,507.5 Z"/></g>
<g><path style="opacity:0.286" fill="#283056" d="M 325.5,409.5 C 328.686,409.613 331.353,410.78 333.5,413C 332.266,419.58 330.766,426.08 329,432.5C 319.944,435.018 311.11,438.018 302.5,441.5C 309.949,436.117 318.282,432.45 327.5,430.5C 328.376,424.981 329.71,419.648 331.5,414.5C 329.481,412.81 327.481,411.144 325.5,409.5 Z"/></g>
<g><path style="opacity:0.544" fill="#385c9b" d="M 697.5,164.5 C 698.832,287.667 698.832,411.001 697.5,534.5C 694.168,544.518 687.835,547.185 678.5,542.5C 685.383,544.401 690.883,542.401 695,536.5C 695.827,532.541 696.327,528.541 696.5,524.5C 696.411,507.814 696.411,491.48 696.5,475.5C 697.499,372.001 697.833,268.335 697.5,164.5 Z"/></g>
<g><path style="opacity:0.999" fill="#71aaf7" d="M 703.5,816.5 C 704.339,817.641 705.006,818.974 705.5,820.5C 707.679,821.757 709.679,823.257 711.5,825C 720.191,827.515 728.524,830.848 736.5,835C 742.023,837.098 747.689,838.598 753.5,839.5C 758.686,841.116 763.686,843.116 768.5,845.5C 772.659,848.749 777.326,851.249 782.5,853C 789.723,855.074 796.723,857.741 803.5,861C 805.134,861.494 806.801,861.66 808.5,861.5C 819.06,865.411 829.727,869.244 840.5,873C 842.431,873.902 844.097,875.069 845.5,876.5C 848.372,879.281 851.705,880.281 855.5,879.5C 831.813,851.154 807.147,823.82 781.5,797.5C 779.241,794.062 776.741,790.729 774,787.5C 771.894,784.882 769.394,782.882 766.5,781.5C 765.833,781.5 765.5,781.167 765.5,780.5C 766.525,780.103 766.692,779.437 766,778.5C 760.5,772.333 755,766.167 749.5,760C 748.906,759.536 748.239,759.369 747.5,759.5C 747.5,759.167 747.5,758.833 747.5,758.5C 736.234,744.726 724.734,731.059 713,717.5C 710.942,715.932 708.775,714.598 706.5,713.5C 705.287,713.747 704.62,714.414 704.5,715.5C 704.5,716.167 704.167,716.5 703.5,716.5C 699.44,716.685 695.773,718.352 692.5,721.5C 686.939,722.896 681.273,723.562 675.5,723.5C 673.736,733.737 673.069,744.07 673.5,754.5C 671.495,762.631 671.161,770.964 672.5,779.5C 675.359,781.051 678.359,782.051 681.5,782.5C 682.219,784.888 683.885,786.388 686.5,787C 689.039,789.37 691.372,791.87 693.5,794.5C 693.5,795.5 693.5,796.5 693.5,797.5C 692.127,797.657 690.793,797.49 689.5,797C 684.058,791.239 677.725,786.572 670.5,783C 668.46,780.219 666.793,777.219 665.5,774C 667.516,758.268 669.016,742.435 670,726.5C 670.792,724.413 671.959,722.579 673.5,721C 680.512,719.333 687.345,717.166 694,714.5C 695.726,715.576 697.559,715.743 699.5,715C 698.664,713.757 698.997,712.59 700.5,711.5C 703.3,709.551 706.133,708.551 709,708.5C 721.315,719.474 732.149,731.641 741.5,745C 744.964,748.222 748.464,750.722 752,752.5C 753.92,749.879 754.587,746.879 754,743.5C 751.469,741.035 749.969,738.035 749.5,734.5C 744.816,729.654 739.649,725.321 734,721.5C 733.667,720.5 733.333,719.5 733,718.5C 728.446,714.613 724.613,710.113 721.5,705C 722.293,703.915 722.96,702.748 723.5,701.5C 722.328,697.169 723.328,693.336 726.5,690C 725.833,688.333 725.167,686.667 724.5,685C 732.349,660.214 727.016,638.881 708.5,621C 704.301,618.07 699.968,615.403 695.5,613C 697.247,612.648 698.914,612.148 700.5,611.5C 707.816,614.316 712.982,619.316 716,626.5C 722.846,631.177 727.512,637.51 730,645.5C 731.893,651.348 732.726,657.348 732.5,663.5C 731.586,671.574 730.253,679.574 728.5,687.5C 726.996,691.478 725.83,695.478 725,699.5C 731.688,706.951 737.855,714.618 743.5,722.5C 745.087,725.268 746.92,727.935 749,730.5C 754.422,736.419 759.922,742.086 765.5,747.5C 771.096,754.94 776.929,762.273 783,769.5C 801.706,789.37 820.206,809.37 838.5,829.5C 846.761,840.43 856.094,850.43 866.5,859.5C 867.606,862.054 868.439,864.721 869,867.5C 869.333,867.167 869.667,866.833 870,866.5C 871.888,868.631 873.388,868.631 874.5,866.5C 872.683,858.933 871.517,851.266 871,843.5C 869.384,841.287 868.217,838.953 867.5,836.5C 867.5,835.167 867.5,833.833 867.5,832.5C 866.171,824.54 865.005,816.54 864,808.5C 863.015,806.825 862.181,805.158 861.5,803.5C 861.5,803.167 861.5,802.833 861.5,802.5C 860.784,793.839 859.95,785.172 859,776.5C 855.1,759.199 851.6,741.866 848.5,724.5C 847.044,716.549 845.711,708.549 844.5,700.5C 846.845,692.881 846.012,685.548 842,678.5C 841.667,678.833 841.333,679.167 841,679.5C 840.502,675.509 839.335,671.842 837.5,668.5C 836.955,655.844 834.788,643.511 831,631.5C 826.845,603.117 822.178,574.783 817,546.5C 815.848,538.878 814.015,531.545 811.5,524.5C 812.193,516.982 810.859,509.982 807.5,503.5C 805.942,499.392 805.276,495.059 805.5,490.5C 803.454,476.22 801.621,461.886 800,447.5C 799.5,446.5 799,445.5 798.5,444.5C 794.878,443.341 791.211,443.175 787.5,444C 778.91,469.019 770.077,493.852 761,518.5C 760.5,520.5 760,522.5 759.5,524.5C 759.543,525.416 759.876,526.083 760.5,526.5C 759.917,529.947 758.584,532.947 756.5,535.5C 752.903,541.71 750.07,548.376 748,555.5C 745.411,561.016 742.078,566.016 738,570.5C 737.517,571.448 737.351,572.448 737.5,573.5C 729.966,579.094 722.299,584.427 714.5,589.5C 709.532,590.659 704.532,591.659 699.5,592.5C 699.5,594.167 699.5,595.833 699.5,597.5C 699.5,597.833 699.5,598.167 699.5,598.5C 697.682,601.844 696.682,605.511 696.5,609.5C 695.878,610.627 695.045,611.627 694,612.5C 693.167,610.833 692.333,609.167 691.5,607.5C 692.122,601.922 693.622,596.589 696,591.5C 696.853,589.875 697.853,589.542 699,590.5C 706.678,587.596 714.178,584.096 721.5,580C 731.766,572.232 740.099,562.732 746.5,551.5C 757.071,518.682 768.904,485.016 782,450.5C 781.053,444.115 783.886,440.115 790.5,438.5C 792.371,439.767 794.204,439.767 796,438.5C 798.052,439.723 800.219,440.723 802.5,441.5C 801.145,442.675 801.312,443.675 803,444.5C 806.269,462.835 809.936,480.835 814,498.5C 817.223,498.725 819.89,498.725 822,498.5C 819.372,480.356 816.039,462.689 812,445.5C 811.078,441.299 811.578,437.299 813.5,433.5C 820.663,429.174 825.83,423.174 829,415.5C 830.154,414.257 831.488,413.257 833,412.5C 834.942,405.246 836.609,397.913 838,390.5C 838.499,395.155 838.666,399.821 838.5,404.5C 836.803,411.071 834.303,417.404 831,423.5C 826.265,428.507 821.432,433.341 816.5,438C 817.199,441.709 818.199,445.209 819.5,448.5C 819.5,449.5 819.5,450.5 819.5,451.5C 819.627,456.151 820.627,460.485 822.5,464.5C 822.5,465.167 822.5,465.833 822.5,466.5C 828.838,501.357 834.671,536.357 840,571.5C 841.519,576.274 843.019,580.941 844.5,585.5C 844.441,591.16 845.441,596.494 847.5,601.5C 847.5,601.833 847.5,602.167 847.5,602.5C 849.998,627.275 854.331,651.609 860.5,675.5C 860.5,676.167 860.5,676.833 860.5,677.5C 861.076,683.485 861.576,689.485 862,695.5C 862.667,696.833 863.333,698.167 864,699.5C 867.753,724.022 871.92,748.355 876.5,772.5C 876.348,777.287 877.015,781.954 878.5,786.5C 879.833,600 879.833,413.667 878.5,227.5C 878.666,218.827 878.5,210.16 878,201.5C 875.59,209.894 873.09,218.228 870.5,226.5C 858.211,255.507 846.378,284.84 835,314.5C 832.464,320.716 830.63,327.05 829.5,333.5C 826.54,336.1 825.206,339.433 825.5,343.5C 824.414,343.62 823.747,344.287 823.5,345.5C 822.733,349.067 821.733,352.567 820.5,356C 820.989,357.138 821.322,358.305 821.5,359.5C 818.396,360.955 816.73,359.788 816.5,356C 832.993,311.324 849.827,267.491 867,224.5C 869.738,216.954 872.071,209.287 874,201.5C 874.689,200.643 875.522,199.977 876.5,199.5C 879.427,200.762 882.093,202.429 884.5,204.5C 883.518,266.113 883.518,327.613 884.5,389C 883.714,399.808 883.047,410.642 882.5,421.5C 882.924,479.317 883.591,537.15 884.5,595C 884.514,658.471 884.347,721.971 884,785.5C 882.309,789.213 879.475,790.379 875.5,789C 873.951,787.786 872.785,786.286 872,784.5C 871.421,771.948 869.588,759.614 866.5,747.5C 853.782,673.201 840.616,598.867 827,524.5C 826.519,528.531 825.853,532.531 825,536.5C 824.322,531.143 824.489,525.809 825.5,520.5C 825.503,517.398 825.003,517.065 824,519.5C 823.73,515.627 823.23,511.794 822.5,508C 822.15,506.743 821.483,506.409 820.5,507C 821.852,509.991 822.519,513.158 822.5,516.5C 822.306,522.361 822.14,528.361 822,534.5C 821.667,532.5 821.333,530.5 821,528.5C 820.282,532.478 820.782,536.311 822.5,540C 822.265,540.873 821.931,541.707 821.5,542.5C 824.771,546.631 825.438,551.297 823.5,556.5C 840.34,652.034 857.674,748.2 875.5,845C 874.978,845.561 874.645,846.228 874.5,847C 876.513,854.053 877.346,861.22 877,868.5C 874.862,871.656 872.529,871.989 870,869.5C 866.346,867.031 862.846,863.698 859.5,859.5C 853.568,853.741 847.401,848.075 841,842.5C 840.667,841.5 840.333,840.5 840,839.5C 828.26,827.099 816.927,814.432 806,801.5C 805.667,801.833 805.333,802.167 805,802.5C 804.311,801.643 803.478,800.977 802.5,800.5C 801.234,803.759 800.734,807.093 801,810.5C 801.333,809.833 801.667,809.167 802,808.5C 804.087,813.517 807.254,817.684 811.5,821C 811.167,821.333 810.833,821.667 810.5,822C 817.536,828.336 823.536,835.002 828.5,842C 841.076,853.562 851.743,866.562 860.5,881C 859.495,882.109 858.828,883.609 858.5,885.5C 838.014,879.876 817.847,872.543 798,863.5C 797.667,863.833 797.333,864.167 797,864.5C 795.622,862.787 793.955,861.453 792,860.5C 790.475,860.112 788.808,860.112 787,860.5C 785.757,858.167 784.091,857.5 782,858.5C 775.292,854.852 768.292,851.519 761,848.5C 749.172,844.876 737.506,840.21 726,834.5C 724.127,835.089 722.46,834.422 721,832.5C 720.667,832.833 720.333,833.167 720,833.5C 717.238,832.019 714.571,830.353 712,828.5C 706.372,828.886 703.039,826.219 702,820.5C 702.811,821.96 703.645,822.293 704.5,821.5C 703.691,819.929 703.357,818.262 703.5,816.5 Z M 805.5,490.5 C 805.276,495.059 805.942,499.392 807.5,503.5C 807.942,508.436 808.942,513.269 810.5,518C 809.452,520.395 809.785,522.562 811.5,524.5C 819.229,572.815 827.896,620.815 837.5,668.5C 840.205,685.389 842.872,702.055 845.5,718.5C 850.841,746.625 856.174,774.625 861.5,802.5C 861.5,802.833 861.5,803.167 861.5,803.5C 862.954,813.395 864.954,823.061 867.5,832.5C 867.5,833.833 867.5,835.167 867.5,836.5C 869.433,845.761 870.6,855.095 871,864.5C 870.004,862.34 868.504,860.673 866.5,859.5C 857.859,850.021 849.359,840.354 841,830.5C 840.329,829.748 839.496,829.414 838.5,829.5C 836.3,825.12 833.467,821.12 830,817.5C 808.634,793.97 787.134,770.637 765.5,747.5C 761.954,741.775 757.787,736.441 753,731.5C 749.938,728.268 746.771,725.268 743.5,722.5C 737.855,714.618 731.688,706.951 725,699.5C 725.83,695.478 726.996,691.478 728.5,687.5C 729.497,687.53 730.164,687.03 730.5,686C 740.385,651.78 730.051,625.947 699.5,608.5C 698.808,605.23 698.808,601.897 699.5,598.5C 699.5,598.167 699.5,597.833 699.5,597.5C 700.267,596.828 700.934,595.995 701.5,595C 705.999,593.307 710.332,591.474 714.5,589.5C 723.7,586.398 731.366,581.064 737.5,573.5C 742.236,569.255 746.069,564.255 749,558.5C 751.968,550.95 754.468,543.284 756.5,535.5C 758.584,532.947 759.917,529.947 760.5,526.5C 770.016,499.476 779.516,472.476 789,445.5C 791.796,445.037 794.629,445.037 797.5,445.5C 798.328,452.153 799.162,458.82 800,465.5C 801.781,473.909 803.614,482.242 805.5,490.5 Z"/></g>
<g><path style="opacity:0.051" fill="#162124" d="M 829.5,333.5 C 828.737,337.137 827.403,340.47 825.5,343.5C 825.206,339.433 826.54,336.1 829.5,333.5 Z"/></g>
<g><path style="opacity:0.102" fill="#202745" d="M 870.5,226.5 C 858.198,262.728 844.531,298.394 829.5,333.5C 830.63,327.05 832.464,320.716 835,314.5C 846.378,284.84 858.211,255.507 870.5,226.5 Z"/></g>
<g><path style="opacity:0.278" fill="#283150" d="M 374.5,412.5 C 370.281,414.689 365.781,416.356 361,417.5C 360.098,421.165 359.265,425.165 358.5,429.5C 358.685,430.584 359.018,431.584 359.5,432.5C 358.5,432.5 357.5,432.5 356.5,432.5C 356.924,426.776 357.757,421.11 359,415.5C 364.06,414.085 369.227,413.085 374.5,412.5 Z"/></g>
<g><path style="opacity:0.133" fill="#1b261d" d="M 394.5,409.5 C 395.239,409.369 395.906,409.536 396.5,410C 407.035,420.702 417.702,431.202 428.5,441.5C 428.5,442.167 428.5,442.833 428.5,443.5C 416.833,432.5 405.5,421.167 394.5,409.5 Z"/></g>
<g><path style="opacity:0.037" fill="#1b1f21" d="M 194.5,405.5 C 195.596,410.134 196.929,414.801 198.5,419.5C 197.883,419.611 197.383,419.944 197,420.5C 195.105,415.675 194.272,410.675 194.5,405.5 Z"/></g>
<g><path style="opacity:0.098" fill="#212838" d="M 838.5,382.5 C 844.432,405.048 837.932,423.381 819,437.5C 818.938,441.148 819.105,444.815 819.5,448.5C 818.199,445.209 817.199,441.709 816.5,438C 821.432,433.341 826.265,428.507 831,423.5C 834.303,417.404 836.803,411.071 838.5,404.5C 839.655,397.32 839.655,389.987 838.5,382.5 Z"/></g>
<g><path style="opacity:0.012" fill="#161d31" d="M 570.5,397.5 C 579.567,408.63 587.9,420.297 595.5,432.5C 588.856,424.346 582.356,416.013 576,407.5C 573.865,404.233 572.031,400.899 570.5,397.5 Z"/></g>
<g><path style="opacity:0.157" fill="#1d283b" d="M 421.5,386.5 C 446.953,401.095 471.953,416.429 496.5,432.5C 494.692,432.509 493.025,432.009 491.5,431C 478.466,422.484 465.132,414.484 451.5,407C 442.078,400.573 432.411,394.573 422.5,389C 421.748,388.329 421.414,387.496 421.5,386.5 Z"/></g>
<g><path style="opacity:0.039" fill="#304146" d="M 759.5,431.5 C 755.125,427.451 751.459,422.784 748.5,417.5C 747.958,419.949 747.625,422.449 747.5,425C 748.272,446.823 748.772,468.656 749,490.5C 752.055,481.234 755.555,472.234 759.5,463.5C 756.056,476.429 751.889,489.096 747,501.5C 746.333,470.5 746.333,439.5 747,408.5C 749.678,417.002 753.845,424.669 759.5,431.5 Z"/></g>
<g><path style="opacity:0.029" fill="#202a51" d="M 433.5,416.5 C 434.635,417.474 435.635,418.641 436.5,420C 442.164,422.163 447.164,425.329 451.5,429.5C 449.5,428.833 447.5,428.167 445.5,427.5C 453.444,436.115 461.444,444.781 469.5,453.5C 454.3,439.73 439.3,425.73 424.5,411.5C 425.002,410.479 425.668,410.312 426.5,411C 428.422,413.43 430.755,415.263 433.5,416.5 Z"/></g>
<g><path style="opacity:0.053" fill="#15161e" d="M 198.5,421.5 C 199.338,427.855 200.338,434.188 201.5,440.5C 200.03,437.051 198.864,433.384 198,429.5C 197.199,426.633 197.366,423.966 198.5,421.5 Z"/></g>
<g><path style="opacity:0.016" fill="#171e2c" d="M 595.5,432.5 C 599.262,435.929 602.262,439.929 604.5,444.5C 601.785,442.098 599.285,439.432 597,436.5C 596.209,435.255 595.709,433.922 595.5,432.5 Z"/></g>
<g><path style="opacity:0.989" fill="#4f73aa" d="M 360.5,432.5 C 370.072,434.227 378.739,438.06 386.5,444C 396.061,453.295 404.561,463.461 412,474.5C 412.791,475.745 413.291,477.078 413.5,478.5C 411.405,477.588 409.405,476.421 407.5,475C 406.207,474.51 404.873,474.343 403.5,474.5C 403.057,471.376 401.39,469.043 398.5,467.5C 398.901,465.566 399.901,464.066 401.5,463C 399.633,459.632 396.966,457.132 393.5,455.5C 392.749,456.376 392.249,457.376 392,458.5C 388.1,453.267 383.6,448.767 378.5,445C 378.905,444.055 379.572,443.388 380.5,443C 379.833,442.333 379.167,441.667 378.5,441C 372.306,438.231 366.306,435.398 360.5,432.5 Z"/></g>
<g><path style="opacity:0.145" fill="#151b2b" d="M 302.5,441.5 C 296.531,446.636 291.031,452.303 286,458.5C 280.656,469.723 275.823,481.056 271.5,492.5C 274.379,480.697 278.545,469.364 284,458.5C 288.643,451.109 294.809,445.442 302.5,441.5 Z"/></g>
<g><path style="opacity:0.016" fill="#262a39" d="M 176.5,432.5 C 177.935,434.598 179.102,436.931 180,439.5C 181.74,449.085 182.906,458.752 183.5,468.5C 180.735,456.707 178.402,444.707 176.5,432.5 Z"/></g>
<g><path style="opacity:0.576" fill="#293659" d="M 454.5,431.5 C 456.55,431.961 458.55,432.628 460.5,433.5C 464.287,436.567 468.287,439.4 472.5,442C 481.079,445.417 488.746,450.251 495.5,456.5C 481.065,449.393 467.398,441.059 454.5,431.5 Z"/></g>
<g><path style="opacity:0.082" fill="#20283b" d="M 533.5,433.5 C 534.496,433.414 535.329,433.748 536,434.5C 540.935,442.701 546.601,450.368 553,457.5C 554.705,459.577 555.872,461.91 556.5,464.5C 548.114,454.74 540.447,444.406 533.5,433.5 Z"/></g>
<g><path style="opacity:0.024" fill="#182137" d="M 604.5,444.5 C 617.128,460.642 629.628,476.975 642,493.5C 645.946,499.779 650.279,505.779 655,511.5C 655.483,512.448 655.649,513.448 655.5,514.5C 642.224,498.004 629.391,481.004 617,463.5C 612.315,457.452 608.149,451.119 604.5,444.5 Z"/></g>
<g><path style="opacity:0.108" fill="#131912" d="M 819.5,451.5 C 821.237,455.542 822.237,459.876 822.5,464.5C 820.627,460.485 819.627,456.151 819.5,451.5 Z"/></g>
<g><path style="opacity:0.098" fill="#1b2440" d="M 469.5,453.5 C 475.882,457.882 481.215,463.215 485.5,469.5C 480.939,465.556 476.273,461.722 471.5,458C 470.418,456.67 469.751,455.17 469.5,453.5 Z"/></g>
<g><path style="opacity:0.006" fill="#1d223a" d="M 496.5,432.5 C 499.596,433.547 502.596,434.88 505.5,436.5C 521.644,446.608 537.978,456.442 554.5,466C 555.816,466.528 556.483,466.028 556.5,464.5C 557.5,464.833 558.167,465.5 558.5,466.5C 560.433,468.937 562.6,471.271 565,473.5C 565.667,474.167 565.667,474.833 565,475.5C 551.454,466.305 537.621,457.471 523.5,449C 515.59,444.477 507.59,440.143 499.5,436C 498.29,434.961 497.29,433.794 496.5,432.5 Z"/></g>
<g><path style="opacity:0.133" fill="#1f2744" d="M 522.5,472.5 C 524.482,472.995 526.482,473.495 528.5,474C 531.874,477.337 535.541,480.171 539.5,482.5C 533.075,480.398 527.408,477.065 522.5,472.5 Z"/></g>
<g><path style="opacity:0.149" fill="#1f2841" d="M 485.5,469.5 C 500.221,482.221 513.888,495.887 526.5,510.5C 525.527,510.013 524.527,509.513 523.5,509C 510.966,495.634 498.3,482.468 485.5,469.5 Z"/></g>
<g><path style="opacity:0.306" fill="#182a3c" d="M 413.5,478.5 C 419.311,484.793 424.645,491.46 429.5,498.5C 423.034,492.704 417.7,486.038 413.5,478.5 Z"/></g>
<g><path style="opacity:0.082" fill="#282f49" d="M 805.5,490.5 C 803.614,482.242 801.781,473.909 800,465.5C 799.162,458.82 798.328,452.153 797.5,445.5C 794.629,445.037 791.796,445.037 789,445.5C 779.516,472.476 770.016,499.476 760.5,526.5C 759.876,526.083 759.543,525.416 759.5,524.5C 760,522.5 760.5,520.5 761,518.5C 770.077,493.852 778.91,469.019 787.5,444C 791.211,443.175 794.878,443.341 798.5,444.5C 799,445.5 799.5,446.5 800,447.5C 801.621,461.886 803.454,476.22 805.5,490.5 Z"/></g>
<g><path style="opacity:0.047" fill="#1d1d30" d="M 208.5,478.5 C 211.629,494.813 214.629,511.146 217.5,527.5C 211.81,511.553 208.81,495.219 208.5,478.5 Z"/></g>
<g><path style="opacity:0.071" fill="#192631" d="M 353.5,485.5 C 354.93,485.421 356.264,485.754 357.5,486.5C 365.858,497.024 374.025,507.691 382,518.5C 382.41,519.901 382.91,521.234 383.5,522.5C 380.916,520.077 378.416,517.411 376,514.5C 369.436,504.002 361.936,494.336 353.5,485.5 Z"/></g>
<g><path style="opacity:0.055" fill="#1a1c26" d="M 807.5,503.5 C 810.859,509.982 812.193,516.982 811.5,524.5C 809.785,522.562 809.452,520.395 810.5,518C 808.942,513.269 807.942,508.436 807.5,503.5 Z"/></g>
<g><path style="opacity:0.09" fill="#1e2a38" d="M 271.5,492.5 C 271.369,498.727 269.535,504.394 266,509.5C 264.545,516.393 262.045,522.726 258.5,528.5C 262.24,516.152 266.574,504.152 271.5,492.5 Z"/></g>
<g><path style="opacity:0.133" fill="#291a60" d="M 930.5,457.5 C 931.489,499.457 931.822,541.457 931.5,583.5C 930.833,580.833 930.167,578.167 929.5,575.5C 929.168,535.996 929.501,496.663 930.5,457.5 Z"/></g>
<g><path style="opacity:0.071" fill="#171d28" d="M 526.5,510.5 C 530.655,514.097 534.822,517.763 539,521.5C 539.464,522.094 539.631,522.761 539.5,523.5C 534.173,520.173 529.839,515.839 526.5,510.5 Z"/></g>
<g><path style="opacity:0.043" fill="#242a39" d="M 822.5,466.5 C 826.058,482.59 829.725,498.757 833.5,515C 832.978,515.561 832.645,516.228 832.5,517C 836.73,539.774 840.73,562.607 844.5,585.5C 843.019,580.941 841.519,576.274 840,571.5C 834.671,536.357 828.838,501.357 822.5,466.5 Z"/></g>
<g><path style="opacity:0.027" fill="#1c2447" d="M 428.5,441.5 C 473.698,484.698 518.031,529.031 561.5,574.5C 560.761,574.631 560.094,574.464 559.5,574C 516.154,530.488 472.488,486.988 428.5,443.5C 428.5,442.833 428.5,442.167 428.5,441.5 Z"/></g>
<g><path style="opacity:0.129" fill="#1f273c" d="M 429.5,498.5 C 458.704,516.264 487.704,534.264 516.5,552.5C 513.984,552.245 511.65,551.411 509.5,550C 483.913,533.529 457.913,517.529 431.5,502C 430.177,501.184 429.511,500.017 429.5,498.5 Z"/></g>
<g><path style="opacity:0.678" fill="#4062b3" d="M 144.5,250.5 C 143.167,298.833 143.167,347.167 144.5,395.5C 144.5,469.5 144.5,543.5 144.5,617.5C 143.501,668.331 143.168,719.331 143.5,770.5C 142.334,594 142.167,417.334 143,240.5C 144.199,243.726 144.699,247.059 144.5,250.5 Z"/></g>
<g><path style="opacity:0.176" fill="#232c49" d="M 596.5,519.5 C 598.129,520.625 599.629,521.959 601,523.5C 605.974,530.641 611.14,537.641 616.5,544.5C 617.562,546.022 618.229,547.688 618.5,549.5C 613.531,543.688 608.697,537.688 604,531.5C 601.249,527.598 598.749,523.598 596.5,519.5 Z"/></g>
<g><path style="opacity:0.051" fill="#1a2035" d="M 383.5,522.5 C 389.384,527.935 394.051,534.269 397.5,541.5C 392.069,535.734 387.402,529.401 383.5,522.5 Z"/></g>
<g><path style="opacity:0.058" fill="#252010" d="M 218.5,530.5 C 219.327,534.807 219.993,539.14 220.5,543.5C 218.356,539.294 217.69,534.961 218.5,530.5 Z"/></g>
<g><path style="opacity:0.243" fill="#1f1e33" d="M 664.5,526.5 C 668.19,531.185 671.857,535.852 675.5,540.5C 673.629,540.141 672.129,539.141 671,537.5C 668.306,534.108 666.14,530.441 664.5,526.5 Z"/></g>
<g><path style="opacity:0.149" fill="#19213f" d="M 539.5,523.5 C 553.856,536.19 567.523,549.523 580.5,563.5C 571.698,555.867 563.032,548.034 554.5,540C 549.634,534.305 544.634,528.805 539.5,523.5 Z"/></g>
<g><path style="opacity:0.278" fill="#24293f" d="M 183.5,468.5 C 184.347,471.816 185.514,475.15 187,478.5C 192.144,505.435 196.977,532.435 201.5,559.5C 201.457,560.416 201.124,561.083 200.5,561.5C 197.166,545.427 194.166,529.427 191.5,513.5C 188.088,498.609 185.421,483.609 183.5,468.5 Z"/></g>
<g><path style="opacity:0.769" fill="#2c364c" d="M 257.5,529.5 C 258.124,529.917 258.457,530.584 258.5,531.5C 256.686,536.757 255.186,542.09 254,547.5C 252.951,550.187 251.451,552.52 249.5,554.5C 251.869,546.089 254.536,537.756 257.5,529.5 Z"/></g>
<g><path style="opacity:0.314" fill="#1c243e" d="M 397.5,541.5 C 411.544,559.212 425.377,577.212 439,595.5C 443.187,601.89 447.354,608.224 451.5,614.5C 433.574,592.041 416.074,569.041 399,545.5C 398.209,544.255 397.709,542.922 397.5,541.5 Z"/></g>
<g><path style="opacity:0.196" fill="#192139" d="M 478.5,554.5 C 475.479,552.763 472.479,550.93 469.5,549C 468.365,548.251 467.365,548.417 466.5,549.5C 469.938,553.927 472.938,558.594 475.5,563.5C 472.785,561.098 470.285,558.432 468,555.5C 465.754,550.759 462.92,546.426 459.5,542.5C 459.833,542.167 460.167,541.833 460.5,541.5C 464.7,545.1 469.367,547.933 474.5,550C 476.041,551.371 477.375,552.871 478.5,554.5 Z"/></g>
<g><path style="opacity:0.082" fill="#1d2833" d="M 618.5,549.5 C 619.721,550.028 620.887,550.695 622,551.5C 626.608,559.267 631.775,566.6 637.5,573.5C 635.147,571.899 632.98,569.899 631,567.5C 626.567,561.616 622.401,555.616 618.5,549.5 Z"/></g>
<g><path style="opacity:0.984" fill="#354d72" d="M 483.5,557.5 C 487.446,559.906 491.78,561.24 496.5,561.5C 496.238,562.978 496.571,564.311 497.5,565.5C 500.599,566.362 503.433,567.695 506,569.5C 507.049,568.483 508.216,568.316 509.5,569C 508.272,570.49 508.272,571.99 509.5,573.5C 500.166,569.17 491.499,563.837 483.5,557.5 Z"/></g>
<g><path style="opacity:0.149" fill="#1f2741" d="M 756.5,535.5 C 754.468,543.284 751.968,550.95 749,558.5C 746.069,564.255 742.236,569.255 737.5,573.5C 737.351,572.448 737.517,571.448 738,570.5C 742.078,566.016 745.411,561.016 748,555.5C 750.07,548.376 752.903,541.71 756.5,535.5 Z"/></g>
<g><path style="opacity:0.094" fill="#1d2840" d="M 516.5,552.5 C 534.116,562.31 551.449,572.643 568.5,583.5C 565.846,580.835 563.513,577.835 561.5,574.5C 565.876,577.509 569.543,581.175 572.5,585.5C 576.122,587.524 579.456,590.024 582.5,593C 583.5,594 584.5,595 585.5,596C 584.833,596.667 584.167,596.667 583.5,596C 562.392,582.208 541.058,568.875 519.5,556C 518.29,554.961 517.29,553.794 516.5,552.5 Z"/></g>
<g><path style="opacity:0.095" fill="#171f10" d="M 224.5,563.5 C 225.327,567.807 225.993,572.14 226.5,576.5C 224.356,572.294 223.69,567.961 224.5,563.5 Z"/></g>
<g><path style="opacity:0.345" fill="#384057" d="M 264.5,602.5 C 269.031,606.544 272.865,611.211 276,616.5C 276.234,599.987 276.734,583.487 277.5,567C 276.882,560.844 276.382,554.677 276,548.5C 275.243,550.315 274.41,551.981 273.5,553.5C 273.763,547.776 275.263,542.443 278,537.5C 278.667,567.833 278.667,598.167 278,628.5C 276.305,623.053 274.305,617.72 272,612.5C 269.239,609.286 266.739,605.953 264.5,602.5 Z"/></g>
<g><path style="opacity:0.145" fill="#1c292a" d="M 478.5,567.5 C 481.831,570.172 484.165,573.505 485.5,577.5C 482.677,574.525 480.344,571.192 478.5,567.5 Z"/></g>
<g><path style="opacity:0.978" fill="#2d3754" d="M 270.5,561.5 C 266.351,573.087 262.351,584.753 258.5,596.5C 259.861,598.699 261.527,600.699 263.5,602.5C 260.405,601.621 258.072,599.788 256.5,597C 258.199,591.188 260.199,585.521 262.5,580C 261.67,578.535 261.504,577.035 262,575.5C 262.333,575.833 262.667,576.167 263,576.5C 265.232,571.265 267.732,566.265 270.5,561.5 Z"/></g>
<g><path style="opacity:0.494" fill="#446ac2" d="M 878.5,227.5 C 879.833,413.667 879.833,600 878.5,786.5C 877.015,781.954 876.348,777.287 876.5,772.5C 877.314,774.631 877.814,776.964 878,779.5C 878.5,689.834 878.667,600.167 878.5,510.5C 878.5,416.167 878.5,321.833 878.5,227.5 Z"/></g>
<g><path style="opacity:0.098" fill="#2a4457" d="M 580.5,563.5 C 590.695,572.231 600.529,581.564 610,591.5C 610.464,592.094 610.631,592.761 610.5,593.5C 606.687,589.859 602.687,586.359 598.5,583C 592.19,576.703 586.19,570.203 580.5,563.5 Z"/></g>
<g><path style="opacity:0.647" fill="#2c3657" d="M 201.5,565.5 C 206.258,575.46 208.425,586.126 208,597.5C 207.162,598.999 206.329,599.332 205.5,598.5C 206.582,597.406 207.248,596.073 207.5,594.5C 205.085,584.922 203.085,575.255 201.5,565.5 Z"/></g>
<g><path style="opacity:0.055" fill="#1f233c" d="M 737.5,573.5 C 731.366,581.064 723.7,586.398 714.5,589.5C 722.299,584.427 729.966,579.094 737.5,573.5 Z"/></g>
<g><path style="opacity:0.427" fill="#232840" d="M 249.5,555.5 C 246.402,567.565 242.235,579.232 237,590.5C 233.943,591.451 230.777,591.784 227.5,591.5C 227.5,589.167 227.5,586.833 227.5,584.5C 228.931,585.78 229.598,587.447 229.5,589.5C 231.833,589.5 234.167,589.5 236.5,589.5C 239.752,577.678 244.086,566.344 249.5,555.5 Z"/></g>
<g><path style="opacity:0.158" fill="#2e3638" d="M 714.5,589.5 C 710.332,591.474 705.999,593.307 701.5,595C 700.934,595.995 700.267,596.828 699.5,597.5C 699.5,595.833 699.5,594.167 699.5,592.5C 704.532,591.659 709.532,590.659 714.5,589.5 Z"/></g>
<g><path style="opacity:0.016" fill="#202a40" d="M 535.5,590.5 C 535.56,589.957 535.893,589.624 536.5,589.5C 537.795,590.098 539.128,590.598 540.5,591C 546.327,595.75 552.66,599.75 559.5,603C 561.063,603.759 562.063,604.926 562.5,606.5C 553.363,601.43 544.363,596.097 535.5,590.5 Z"/></g>
<g><path style="opacity:0.059" fill="#202717" d="M 844.5,585.5 C 845.989,590.617 846.989,595.951 847.5,601.5C 845.441,596.494 844.441,591.16 844.5,585.5 Z"/></g>
<g><path style="opacity:0.008" fill="#1e2939" d="M 502.5,598.5 C 511.579,610.239 520.245,622.239 528.5,634.5C 525.204,630.702 521.704,627.036 518,623.5C 513.76,616.044 508.76,609.044 503,602.5C 501.702,601.054 501.535,599.721 502.5,598.5 Z"/></g>
<g><path style="opacity:0.243" fill="#282c4d" d="M 811.5,524.5 C 814.015,531.545 815.848,538.878 817,546.5C 822.178,574.783 826.845,603.117 831,631.5C 834.788,643.511 836.955,655.844 837.5,668.5C 827.896,620.815 819.229,572.815 811.5,524.5 Z"/></g>
<g><path style="opacity:0.139" fill="#203a64" d="M 929.5,575.5 C 930.167,578.167 930.833,580.833 931.5,583.5C 931.5,603.833 931.5,624.167 931.5,644.5C 930.833,636.5 930.167,628.5 929.5,620.5C 929.5,605.5 929.5,590.5 929.5,575.5 Z"/></g>
<g><path style="opacity:0.29" fill="#2c2e43" d="M 660.5,590.5 C 661.93,590.421 663.264,590.754 664.5,591.5C 665.407,596.477 666.073,601.477 666.5,606.5C 663.432,606.547 660.432,607.047 657.5,608C 653.896,609.808 650.23,611.308 646.5,612.5C 651.713,608.322 657.713,605.988 664.5,605.5C 664.575,601.103 664.075,596.77 663,592.5C 662.005,591.934 661.172,591.267 660.5,590.5 Z"/></g>
<g><path style="opacity:0.995" fill="#466594" d="M 204.5,599.5 C 202.205,602.297 199.705,604.964 197,607.5C 195.418,609.624 195.251,611.79 196.5,614C 195.034,616.814 193.534,619.647 192,622.5C 191.683,620.699 191.016,620.366 190,621.5C 188.407,625.161 187.241,628.828 186.5,632.5C 186.5,630.5 186.5,628.5 186.5,626.5C 188.511,614.735 194.511,605.735 204.5,599.5 Z"/></g>
<g><path style="opacity:0.349" fill="#19223c" d="M 571.5,612.5 C 571.56,611.957 571.893,611.624 572.5,611.5C 578.382,614.448 583.715,618.114 588.5,622.5C 582.696,619.43 577.03,616.097 571.5,612.5 Z"/></g>
<g><path style="opacity:0.133" fill="#131a31" d="M 451.5,614.5 C 454.215,616.902 456.715,619.568 459,622.5C 459.791,623.745 460.291,625.078 460.5,626.5C 456.738,623.071 453.738,619.071 451.5,614.5 Z"/></g>
<g><path style="opacity:0.994" fill="#4d70a6" d="M 588.5,622.5 C 591.267,623.051 593.6,624.384 595.5,626.5C 597.115,625.846 598.782,625.346 600.5,625C 599.304,624.346 599.304,623.846 600.5,623.5C 607.802,628.144 614.802,633.144 621.5,638.5C 616.72,651.423 615.22,665.09 617,679.5C 617.953,682.432 618.453,685.432 618.5,688.5C 616.825,685.112 615.658,681.445 615,677.5C 613.784,665.986 614.618,654.653 617.5,643.5C 616.99,641.912 615.99,640.745 614.5,640C 605.605,634.395 596.938,628.561 588.5,622.5 Z"/></g>
<g><path style="opacity:0.992" fill="#31425d" d="M 699.5,598.5 C 698.808,601.897 698.808,605.23 699.5,608.5C 730.051,625.947 740.385,651.78 730.5,686C 730.164,687.03 729.497,687.53 728.5,687.5C 730.253,679.574 731.586,671.574 732.5,663.5C 732.726,657.348 731.893,651.348 730,645.5C 727.512,637.51 722.846,631.177 716,626.5C 712.982,619.316 707.816,614.316 700.5,611.5C 699.486,610.326 698.153,609.66 696.5,609.5C 696.682,605.511 697.682,601.844 699.5,598.5 Z"/></g>
<g><path style="opacity:0.11" fill="#182350" d="M 327.5,497.5 C 327.952,599.878 327.952,701.212 327.5,801.5C 326.167,700.167 326.167,598.833 327.5,497.5 Z"/></g>
<g><path style="opacity:0.141" fill="#1c2e21" d="M 186.5,626.5 C 186.5,628.5 186.5,630.5 186.5,632.5C 186.5,638.167 186.5,643.833 186.5,649.5C 183.915,641.839 183.915,634.172 186.5,626.5 Z"/></g>
<g><path style="opacity:0.048" fill="#0f0b17" d="M 877.5,510.5 C 877.833,510.5 878.167,510.5 878.5,510.5C 878.667,600.167 878.5,689.834 878,779.5C 877.814,776.964 877.314,774.631 876.5,772.5C 876.298,770.05 876.631,767.717 877.5,765.5C 877.444,762.483 877.11,762.15 876.5,764.5C 874.946,760.433 874.28,756.1 874.5,751.5C 875.282,754.714 876.115,758.048 877,761.5C 876.649,678.047 876.816,594.38 877.5,510.5 Z"/></g>
<g><path style="opacity:0.18" fill="#24283b" d="M 847.5,602.5 C 852.573,626.599 856.907,650.933 860.5,675.5C 854.331,651.609 849.998,627.275 847.5,602.5 Z"/></g>
<g><path style="opacity:0.02" fill="#191f37" d="M 528.5,634.5 C 538.144,645.785 546.81,657.785 554.5,670.5C 546.912,660.4 539.079,650.4 531,640.5C 529.878,638.593 529.045,636.593 528.5,634.5 Z"/></g>
<g><path style="opacity:0.188" fill="#15182e" d="M 189.5,658.5 C 193.707,663.891 198.207,669.225 203,674.5C 203.969,678.406 203.136,681.739 200.5,684.5C 201.008,682.135 201.675,679.801 202.5,677.5C 200.229,673.726 197.396,670.393 194,667.5C 192.239,664.589 190.739,661.589 189.5,658.5 Z"/></g>
<g><path style="opacity:0.024" fill="#1c1b2c" d="M 273.5,663.5 C 269.234,670.934 263.401,676.934 256,681.5C 255.503,683.81 255.337,686.143 255.5,688.5C 254.523,685.713 254.19,682.713 254.5,679.5C 256.783,679.392 258.783,678.559 260.5,677C 265.064,672.605 269.398,668.105 273.5,663.5 Z"/></g>
<g><path style="opacity:0.094" fill="#212e42" d="M 554.5,670.5 C 561.808,678.449 568.142,687.115 573.5,696.5C 568.086,691.243 563.586,685.243 560,678.5C 556.428,677.021 554.594,674.354 554.5,670.5 Z"/></g>
<g><path style="opacity:0.994" fill="#4b6498" d="M 837.5,668.5 C 839.335,671.842 840.502,675.509 841,679.5C 841.333,679.167 841.667,678.833 842,678.5C 846.012,685.548 846.845,692.881 844.5,700.5C 845.711,708.549 847.044,716.549 848.5,724.5C 847.985,722.249 846.985,720.249 845.5,718.5C 842.872,702.055 840.205,685.389 837.5,668.5 Z"/></g>
<g><path style="opacity:0.227" fill="#1a223d" d="M 460.5,626.5 C 462.129,627.625 463.629,628.959 465,630.5C 473.947,643.448 483.281,656.115 493,668.5C 500.435,679.052 507.601,689.718 514.5,700.5C 503.009,685.53 491.509,670.53 480,655.5C 473.48,645.776 466.98,636.109 460.5,626.5 Z"/></g>
<g><path style="opacity:0.016" fill="#242b46" d="M 236.5,701.5 C 234.044,697.274 233.044,692.607 233.5,687.5C 230.073,687.024 226.74,687.024 223.5,687.5C 219.374,697.406 215.041,707.072 210.5,716.5C 210.674,714.139 211.007,711.806 211.5,709.5C 215.718,701.695 219.385,693.528 222.5,685C 226.74,684.884 230.907,685.384 235,686.5C 236.16,691.434 236.66,696.434 236.5,701.5 Z"/></g>
<g><path style="opacity:0.055" fill="#181a29" d="M 200.5,684.5 C 199.903,689.017 198.237,693.017 195.5,696.5C 196.309,692.063 197.976,688.063 200.5,684.5 Z"/></g>
<g><path style="opacity:0.8" fill="#30406a" d="M 256.5,690.5 C 257.5,697.833 258.5,705.167 259.5,712.5C 255.657,705.524 254.657,698.19 256.5,690.5 Z"/></g>
<g><path style="opacity:0.082" fill="#1e2b49" d="M 621.5,694.5 C 627.387,701.73 633.72,708.73 640.5,715.5C 631.721,710.721 625.388,703.721 621.5,694.5 Z"/></g>
<g><path style="opacity:0.067" fill="#1c2233" d="M 576.5,700.5 C 584.568,710.298 591.901,720.631 598.5,731.5C 594.836,727.668 591.336,723.668 588,719.5C 584.144,713.111 580.311,706.778 576.5,700.5 Z"/></g>
<g><path style="opacity:0.02" fill="#272e4a" d="M 195.5,697.5 C 195.067,700.166 194.567,702.832 194,705.5C 191.086,710.827 188.586,716.327 186.5,722C 185.629,723.364 184.629,724.53 183.5,725.5C 186.472,715.574 190.472,706.241 195.5,697.5 Z"/></g>
<g><path style="opacity:0.993" fill="#6290d4" d="M 211.5,709.5 C 211.007,711.806 210.674,714.139 210.5,716.5C 207.057,726.19 203.057,735.524 198.5,744.5C 197.196,745.987 196.03,747.654 195,749.5C 192.27,755.63 190.103,761.963 188.5,768.5C 187.683,771.479 186.849,774.479 186,777.5C 180.724,790.373 175.224,803.04 169.5,815.5C 169.38,813.266 169.713,811.099 170.5,809C 170.05,807.715 169.383,806.548 168.5,805.5C 172.058,797.817 174.892,790.817 177,784.5C 178,783.167 179,783.167 180,784.5C 182.18,781.641 183.68,778.474 184.5,775C 181.869,773.309 182.203,772.142 185.5,771.5C 186.97,769.518 186.636,767.852 184.5,766.5C 185.747,764.958 185.747,763.458 184.5,762C 190.926,747.558 197.26,733.058 203.5,718.5C 205.975,714.904 208.475,711.238 211,707.5C 211.464,708.094 211.631,708.761 211.5,709.5 Z"/></g>
<g><path style="opacity:0.027" fill="#262a2e" d="M 703.5,716.5 C 700.215,718.975 696.548,720.642 692.5,721.5C 695.773,718.352 699.44,716.685 703.5,716.5 Z"/></g>
<g><path style="opacity:0.486" fill="#313962" d="M 259.5,712.5 C 262.7,721.69 264.367,731.356 264.5,741.5C 261.183,732.234 259.516,722.567 259.5,712.5 Z"/></g>
<g><path style="opacity:0.075" fill="#2b303a" d="M 692.5,721.5 C 687.454,723.323 682.287,724.99 677,726.5C 675.299,743.469 674.132,760.469 673.5,777.5C 672.511,770.569 672.511,762.902 673.5,754.5C 673.069,744.07 673.736,733.737 675.5,723.5C 681.273,723.562 686.939,722.896 692.5,721.5 Z"/></g>
<g><path style="opacity:0.427" fill="#282d48" d="M 640.5,715.5 C 645.151,717.157 649.818,718.823 654.5,720.5C 653.453,739.498 652.453,758.498 651.5,777.5C 649.5,777.5 647.5,777.5 645.5,777.5C 647.19,776.897 648.69,775.897 650,774.5C 650.706,760.492 651.539,746.492 652.5,732.5C 652.167,729.167 651.833,725.833 651.5,722.5C 647.599,720.392 643.933,718.059 640.5,715.5 Z"/></g>
<g><path style="opacity:0.549" fill="#283157" d="M 860.5,677.5 C 864.209,692.847 867.543,708.347 870.5,724C 870.434,726.867 870.434,729.7 870.5,732.5C 872.564,738.669 873.897,745.002 874.5,751.5C 874.28,756.1 874.946,760.433 876.5,764.5C 876.5,765.167 876.833,765.5 877.5,765.5C 876.631,767.717 876.298,770.05 876.5,772.5C 871.92,748.355 867.753,724.022 864,699.5C 863.333,698.167 862.667,696.833 862,695.5C 861.576,689.485 861.076,683.485 860.5,677.5 Z"/></g>
<g><path style="opacity:0.325" fill="#181d36" d="M 743.5,722.5 C 746.771,725.268 749.938,728.268 753,731.5C 757.787,736.441 761.954,741.775 765.5,747.5C 759.922,742.086 754.422,736.419 749,730.5C 746.92,727.935 745.087,725.268 743.5,722.5 Z"/></g>
<g><path style="opacity:0.122" fill="#12185c" d="M 144.5,617.5 C 144.333,684.167 144.5,750.834 145,817.5C 145.847,815.146 146.68,812.812 147.5,810.5C 148.613,811.946 148.78,813.613 148,815.5C 146.472,818.417 145.139,821.417 144,824.5C 143.5,806.503 143.333,788.503 143.5,770.5C 143.168,719.331 143.501,668.331 144.5,617.5 Z"/></g>
<g><path style="opacity:0.141" fill="#1d233e" d="M 747.5,758.5 C 746.504,758.586 745.671,758.252 745,757.5C 733.206,743.37 721.039,729.537 708.5,716C 707.207,715.51 705.873,715.343 704.5,715.5C 704.62,714.414 705.287,713.747 706.5,713.5C 708.775,714.598 710.942,715.932 713,717.5C 724.734,731.059 736.234,744.726 747.5,758.5 Z"/></g>
<g><path style="opacity:0.212" fill="#1e2637" d="M 604.5,739.5 C 613.654,751.138 622.321,763.138 630.5,775.5C 625.685,769.905 620.851,764.238 616,758.5C 612.157,752.144 608.324,745.81 604.5,739.5 Z"/></g>
<g><path style="opacity:0.127" fill="#242c3d" d="M 236.5,701.5 C 239.933,720.51 243.767,739.51 248,758.5C 248.829,763.137 249.329,767.804 249.5,772.5C 248.778,772.082 248.278,771.416 248,770.5C 243.87,749.26 239.704,728.094 235.5,707C 235.387,705.253 235.721,703.42 236.5,701.5 Z"/></g>
<g><path style="opacity:0.429" fill="#283c86" d="M 276.5,814.5 C 277.499,764.336 277.832,714.003 277.5,663.5C 275.927,661.164 274.594,661.164 273.5,663.5C 274.609,659.506 275.942,655.506 277.5,651.5C 278.833,707.167 278.833,762.833 277.5,818.5C 276.571,817.311 276.238,815.978 276.5,814.5 Z"/></g>
<g><path style="opacity:0.722" fill="#283048" d="M 183.5,725.5 C 179.331,736.849 175.165,748.182 171,759.5C 169.496,763.653 167.33,767.32 164.5,770.5C 166.561,764.486 168.727,758.486 171,752.5C 174.725,743.193 178.892,734.193 183.5,725.5 Z"/></g>
<g><path style="opacity:0.004" fill="#2a2a3e" d="M 198.5,744.5 C 196.261,752.976 192.927,760.976 188.5,768.5C 190.103,761.963 192.27,755.63 195,749.5C 196.03,747.654 197.196,745.987 198.5,744.5 Z"/></g>
<g><path style="opacity:0.031" fill="#181f29" d="M 747.5,759.5 C 748.239,759.369 748.906,759.536 749.5,760C 755,766.167 760.5,772.333 766,778.5C 766.692,779.437 766.525,780.103 765.5,780.5C 759.5,773.5 753.5,766.5 747.5,759.5 Z"/></g>
<g><path style="opacity:0.647" fill="#24306a" d="M 673.5,754.5 C 672.511,762.902 672.511,770.569 673.5,777.5C 676.181,779.189 678.848,780.856 681.5,782.5C 678.359,782.051 675.359,781.051 672.5,779.5C 671.161,770.964 671.495,762.631 673.5,754.5 Z"/></g>
<g><path style="opacity:0.741" fill="#2e345a" d="M 845.5,718.5 C 846.985,720.249 847.985,722.249 848.5,724.5C 851.6,741.866 855.1,759.199 859,776.5C 859.95,785.172 860.784,793.839 861.5,802.5C 856.174,774.625 850.841,746.625 845.5,718.5 Z"/></g>
<g><path style="opacity:0.039" fill="#191f39" d="M 514.5,700.5 C 516.129,701.625 517.629,702.959 519,704.5C 529.823,720.117 541.156,735.45 553,750.5C 568.249,772.757 583.916,794.757 600,816.5C 601.122,818.407 601.955,820.407 602.5,822.5C 572.717,782.067 543.384,741.4 514.5,700.5 Z"/></g>
<g><path style="opacity:0.039" fill="#181d24" d="M 163.5,771.5 C 162.532,780.049 159.532,788.049 154.5,795.5C 157.5,787.501 160.5,779.501 163.5,771.5 Z"/></g>
<g><path style="opacity:0.082" fill="#262a47" d="M 264.5,741.5 C 265.776,743.562 266.61,745.896 267,748.5C 269.673,765.542 272.506,782.875 275.5,800.5C 275.674,802.861 276.007,805.194 276.5,807.5C 274.989,805.524 274.156,803.191 274,800.5C 270.895,780.811 267.728,761.144 264.5,741.5 Z"/></g>
<g><path style="opacity:0.047" fill="#383e10" d="M 277.5,663.5 C 277.832,714.003 277.499,764.336 276.5,814.5C 276.5,812.167 276.5,809.833 276.5,807.5C 276.007,805.194 275.674,802.861 275.5,800.5C 276.167,754.833 276.833,709.167 277.5,663.5 Z"/></g>
<g><path style="opacity:0.216" fill="#141c25" d="M 766.5,781.5 C 769.394,782.882 771.894,784.882 774,787.5C 776.741,790.729 779.241,794.062 781.5,797.5C 775.873,792.869 770.873,787.536 766.5,781.5 Z"/></g>
<g><path style="opacity:0.047" fill="#1c1f3e" d="M 681.5,782.5 C 687.837,785.84 692.837,790.507 696.5,796.5C 695.5,795.833 694.5,795.167 693.5,794.5C 691.372,791.87 689.039,789.37 686.5,787C 683.885,786.388 682.219,784.888 681.5,782.5 Z"/></g>
<g><path style="opacity:0.576" fill="#29324e" d="M 249.5,775.5 C 254.247,789.774 257.247,804.608 258.5,820C 258.486,821.385 258.152,822.551 257.5,823.5C 254.961,807.472 252.294,791.472 249.5,775.5 Z"/></g>
<g><path style="opacity:0.286" fill="#1a2339" d="M 765.5,747.5 C 787.134,770.637 808.634,793.97 830,817.5C 833.467,821.12 836.3,825.12 838.5,829.5C 820.206,809.37 801.706,789.37 783,769.5C 776.929,762.273 771.096,754.94 765.5,747.5 Z"/></g>
<g><path style="opacity:0.043" fill="#1e221e" d="M 154.5,795.5 C 154.11,800.937 152.11,805.604 148.5,809.5C 149.943,804.476 151.943,799.809 154.5,795.5 Z"/></g>
<g><path style="opacity:0.129" fill="#22235b" d="M 929.5,620.5 C 930.167,628.5 930.833,636.5 931.5,644.5C 931.5,716.167 931.5,787.833 931.5,859.5C 934.676,860.34 937.342,862.007 939.5,864.5C 936.21,862.909 932.877,861.243 929.5,859.5C 929.5,779.833 929.5,700.167 929.5,620.5 Z"/></g>
<g><path style="opacity:0.592" fill="#283152" d="M 700.5,801.5 C 703.641,807.743 706.307,814.243 708.5,821C 723.659,827.1 738.659,833.266 753.5,839.5C 747.689,838.598 742.023,837.098 736.5,835C 728.524,830.848 720.191,827.515 711.5,825C 709.679,823.257 707.679,821.757 705.5,820.5C 705.006,818.974 704.339,817.641 703.5,816.5C 702.009,811.692 700.675,806.858 699.5,802C 699.728,801.601 700.062,801.435 700.5,801.5 Z"/></g>
<g><path style="opacity:0.027" fill="#1c223c" d="M 781.5,797.5 C 807.147,823.82 831.813,851.154 855.5,879.5C 851.705,880.281 848.372,879.281 845.5,876.5C 847.565,876.517 849.565,876.85 851.5,877.5C 828.568,850.563 805.235,823.896 781.5,797.5 Z"/></g>
<g><path style="opacity:0.075" fill="#1e1e1d" d="M 861.5,803.5 C 862.181,805.158 863.015,806.825 864,808.5C 865.005,816.54 866.171,824.54 867.5,832.5C 864.954,823.061 862.954,813.395 861.5,803.5 Z"/></g>
<g><path style="opacity:0.016" fill="#21223a" d="M 166.5,822.5 C 163.234,831.732 159.567,840.732 155.5,849.5C 156.68,844.454 158.18,839.454 160,834.5C 162.076,831.281 163.576,827.781 164.5,824C 164.836,822.97 165.503,822.47 166.5,822.5 Z"/></g>
<g><path style="opacity:0.114" fill="#1d261e" d="M 262.5,846.5 C 260.805,840.025 259.472,833.359 258.5,826.5C 259.872,829.054 261.039,832.388 262,836.5C 262.498,839.817 262.665,843.15 262.5,846.5 Z"/></g>
<g><path style="opacity:0.263" fill="#20253d" d="M 707.5,844.5 C 705.488,843.986 703.488,843.82 701.5,844C 698.036,849.295 694.036,854.129 689.5,858.5C 694.607,865.053 698.941,872.053 702.5,879.5C 699.448,876.424 696.614,873.09 694,869.5C 692.353,865.541 690.186,861.875 687.5,858.5C 692.427,852.938 697.093,847.271 701.5,841.5C 703.836,842.001 705.836,843.001 707.5,844.5 Z"/></g>
<g><path style="opacity:0.212" fill="#1d212d" d="M 707.5,844.5 C 712.581,844.508 716.915,846.175 720.5,849.5C 715.777,848.63 711.444,846.964 707.5,844.5 Z"/></g>
<g><path style="opacity:0.262" fill="#474777" d="M 327.5,805.5 C 328.371,820.377 328.371,835.21 327.5,850C 327.833,852.5 328.167,855 328.5,857.5C 330.813,858.5 332.813,859.834 334.5,861.5C 331.996,860.361 329.33,859.694 326.5,859.5C 326.168,840.756 326.501,822.756 327.5,805.5 Z"/></g>
<g><path style="opacity:0.106" fill="#1a2136" d="M 602.5,822.5 C 607.803,828.644 612.969,834.978 618,841.5C 626.781,854.089 635.281,866.756 643.5,879.5C 629.065,861.063 615.399,842.063 602.5,822.5 Z"/></g>
<g><path style="opacity:0.251" fill="#262942" d="M 768.5,845.5 C 781.989,850.658 795.322,855.991 808.5,861.5C 806.801,861.66 805.134,861.494 803.5,861C 796.723,857.741 789.723,855.074 782.5,853C 777.326,851.249 772.659,848.749 768.5,845.5 Z"/></g>
<g><path style="opacity:0.02" fill="#1b2a37" d="M 838.5,829.5 C 839.496,829.414 840.329,829.748 841,830.5C 849.359,840.354 857.859,850.021 866.5,859.5C 856.094,850.43 846.761,840.43 838.5,829.5 Z"/></g>
<g><path style="opacity:0.016" fill="#1a2026" d="M 720.5,849.5 C 725.001,850.087 729.001,851.754 732.5,854.5C 728.063,853.691 724.063,852.024 720.5,849.5 Z"/></g>
<g><path style="opacity:0.069" fill="#202b26" d="M 732.5,854.5 C 737.94,855.441 742.94,857.441 747.5,860.5C 742.204,858.941 737.204,856.941 732.5,854.5 Z"/></g>
<g><path style="opacity:0.373" fill="#374573" d="M 867.5,836.5 C 868.217,838.953 869.384,841.287 871,843.5C 871.517,851.266 872.683,858.933 874.5,866.5C 873.388,868.631 871.888,868.631 870,866.5C 869.667,866.833 869.333,867.167 869,867.5C 868.439,864.721 867.606,862.054 866.5,859.5C 868.504,860.673 870.004,862.34 871,864.5C 870.6,855.095 869.433,845.761 867.5,836.5 Z"/></g>
<g><path style="opacity:0.106" fill="#1f2a41" d="M 262.5,846.5 C 266.009,853.545 267.342,861.045 266.5,869C 265.552,869.483 264.552,869.649 263.5,869.5C 263.904,868.244 264.571,867.077 265.5,866C 264.229,859.539 263.229,853.039 262.5,846.5 Z"/></g>
<g><path style="opacity:0.918" fill="#2a3556" d="M 760.5,865.5 C 767.615,868.28 774.949,870.447 782.5,872C 785.612,873.521 788.612,875.187 791.5,877C 798.324,878.746 804.658,881.579 810.5,885.5C 793.53,879.403 776.864,872.737 760.5,865.5 Z"/></g>
<g><path style="opacity:0.098" fill="#282e24" d="M 263.5,869.5 C 260.805,872.526 258.138,875.526 255.5,878.5C 256.768,874.233 259.435,871.233 263.5,869.5 Z"/></g>
<g><path style="opacity:0.011" fill="#15070e" d="M 713.5,890.5 C 714.922,890.709 716.255,891.209 717.5,892C 741.337,892.168 765.004,892.668 788.5,893.5C 766.167,893.5 743.833,893.5 721.5,893.5C 718.058,894.172 715.391,893.172 713.5,890.5 Z"/></g>
<g><path style="opacity:0.112" fill="#310d32" d="M 248.5,890.5 C 249.434,891.568 249.768,892.901 249.5,894.5C 223.833,894.5 198.167,894.5 172.5,894.5C 172.5,893.5 172.5,892.5 172.5,891.5C 197.194,892.493 221.861,893.16 246.5,893.5C 247.425,892.643 248.092,891.643 248.5,890.5 Z"/></g>
<g><path style="opacity:0.067" fill="#0a1149" d="M 810.5,885.5 C 818.497,887.224 826.163,890.057 833.5,894C 795.998,894.831 758.664,894.664 721.5,893.5C 743.833,893.5 766.167,893.5 788.5,893.5C 801.171,893.667 813.838,893.5 826.5,893C 821.022,890.575 815.688,888.075 810.5,885.5 Z"/></g>
<g><path style="opacity:0.018" fill="#262840" d="M 357.5,886.5 C 359.267,890.033 361.1,893.7 363,897.5C 364.956,907.496 364.956,917.496 363,927.5C 361.145,932.946 358.645,937.946 355.5,942.5C 356.572,937.209 358.405,932.209 361,927.5C 363,917.5 363,907.5 361,897.5C 358.147,894.423 356.981,890.756 357.5,886.5 Z"/></g>
<g><path style="opacity:0.004" fill="#000000" d="M 965.5,909.5 C 966.634,911.966 966.801,914.633 966,917.5C 965.503,914.854 965.336,912.187 965.5,909.5 Z"/></g>
<g><path style="opacity:0.024" fill="#182035" d="M 643.5,879.5 C 647.122,882.722 650.288,886.388 653,890.5C 658.834,900.838 665.167,910.838 672,920.5C 680.779,929.294 690.945,935.627 702.5,939.5C 688.882,937.101 677.715,930.435 669,919.5C 660.728,905.941 652.228,892.608 643.5,879.5 Z"/></g>
<g><path style="opacity:0.089" fill="#0c0d11" d="M 251.5,941.5 C 224.664,940.171 197.664,940.171 170.5,941.5C 166.169,948.829 160.503,954.829 153.5,959.5C 156.796,955.702 160.296,952.036 164,948.5C 166.06,945.714 167.56,942.714 168.5,939.5C 196.508,939.167 224.508,939.5 252.5,940.5C 252.376,941.107 252.043,941.44 251.5,941.5 Z"/></g>
<g><path style="opacity:0.103" fill="#1b221d" d="M 702.5,939.5 C 753.168,939.333 803.834,939.5 854.5,940C 855.639,941.78 856.639,943.614 857.5,945.5C 855.866,944.793 854.532,943.627 853.5,942C 851.722,941.296 849.888,940.796 848,940.5C 843.859,941.082 839.692,941.416 835.5,941.5C 791.004,940.887 746.67,940.221 702.5,939.5 Z"/></g>
<g><path style="opacity:0.161" fill="#141a28" d="M 251.5,942.5 C 253.716,943.203 255.549,944.536 257,946.5C 261.739,954.073 267.905,960.073 275.5,964.5C 271.783,963.473 268.45,961.639 265.5,959C 259.992,954.108 255.325,948.608 251.5,942.5 Z"/></g>
<g><path style="opacity:0.016" fill="#141c26" d="M 62.5,886.5 C 51.5228,922.238 62.5228,949.238 95.5,967.5C 78.6099,961.111 66.7765,949.444 60,932.5C 54.7188,916.783 55.5522,901.45 62.5,886.5 Z"/></g>
<g><path style="opacity:0.071" fill="#1e2839" d="M 355.5,942.5 C 344.34,961.649 327.506,971.649 305,972.5C 302.127,972.058 299.46,972.058 297,972.5C 293.58,972.002 290.413,971.002 287.5,969.5C 309.545,973.991 328.879,968.824 345.5,954C 348.698,949.974 352.032,946.141 355.5,942.5 Z"/></g>
<g><path style="opacity:0.016" fill="#1a1f30" d="M 948.5,872.5 C 950.417,873.909 952.25,875.576 954,877.5C 964.181,892.925 967.515,909.925 964,928.5C 952.896,959.65 930.729,974.15 897.5,972C 890.144,971.008 883.477,968.508 877.5,964.5C 881.632,966.118 885.965,967.284 890.5,968C 891.167,968.667 891.833,969.333 892.5,970C 915.788,973.624 935.288,966.79 951,949.5C 964.17,931.869 967.17,912.535 960,891.5C 956.66,884.811 952.827,878.478 948.5,872.5 Z"/></g>
<g><path style="opacity:0.498" fill="#28345d" d="M 153.5,959.5 C 146.049,966.058 137.382,970.225 127.5,972C 121.661,972.383 115.994,972.549 110.5,972.5C 105.756,971.627 101.09,970.461 96.5,969C 95.944,968.617 95.6107,968.117 95.5,967.5C 107.764,969.382 120.097,969.882 132.5,969C 139.708,966.398 146.708,963.231 153.5,959.5 Z"/></g>
</svg>
